<?xml version="1.0" encoding="UTF-8"?>
<svg xmlns="http://www.w3.org/2000/svg" viewBox="0 0 1280 776" fill="none" role="img" aria-label="Карта России">
<title>Карта России</title>
<g class="russia-map" fill="#bcbcbc" stroke="#ffffff" stroke-width="0.9" stroke-linejoin="round" stroke-linecap="round">
<path d="M1055.0,214.5L1051.0,214.5L1044.0,208.5L1039.0,209.5L1034.0,204.5L1021.0,204.5L1016.5,200.0L1015.5,189.0L1025.5,170.0L1016.0,161.5L1006.0,158.5L1004.5,156.0L1022.0,127.5L1040.5,125.0L1040.5,112.0L1029.0,110.5L1023.5,107.0L1037.5,80.0L1058.0,61.5L1096.0,35.5L1105.0,37.5L1115.0,35.5L1119.5,29.0L1115.0,26.5L1108.0,26.5L1107.5,24.0L1112.5,13.0L1127.0,4.5L1131.5,8.0L1129.5,16.0L1131.0,22.5L1151.0,26.5L1153.5,30.0L1151.0,33.5L1146.0,34.5L1138.0,44.5L1131.0,44.5L1123.5,53.0L1123.5,59.0L1121.0,61.5L1109.0,61.5L1108.5,72.0L1111.0,74.5L1126.5,78.0L1129.5,91.0L1123.5,100.0L1125.0,102.5L1134.0,102.5L1142.0,97.5L1156.0,98.5L1163.0,95.5L1167.0,95.5L1170.5,99.0L1159.5,112.0L1165.5,137.0L1153.5,139.0L1153.5,147.0L1148.0,167.5L1140.0,167.5L1131.0,172.5L1124.0,162.5L1108.0,165.5L1085.5,187.0L1082.5,192.0L1081.5,201.0L1080.0,200.5L1079.0,203.5L1072.0,204.5L1055.0,214.5Z"/>
<path d="M1023.0,52.5L1017.5,48.0L1016.5,41.0L1024.0,35.5L1025.5,43.0L1023.0,52.5Z"/>
<path d="M478.0,131.5L475.5,129.0L477.0,127.5L491.5,124.0L489.0,129.5L478.0,131.5Z"/>
<path d="M1179.0,339.5L1171.5,331.0L1166.5,315.0L1160.5,309.0L1162.5,296.0L1150.5,263.0L1150.5,257.0L1148.5,257.0L1146.5,252.0L1144.5,230.0L1141.5,223.0L1128.5,214.0L1131.5,204.0L1123.0,202.5L1120.5,205.0L1115.5,216.0L1119.5,223.0L1118.0,223.5L1112.0,218.5L1106.0,219.5L1102.5,211.0L1097.0,209.5L1090.0,199.5L1084.5,198.0L1085.5,193.0L1101.5,174.0L1108.0,171.5L1111.0,167.5L1122.0,165.5L1130.0,176.5L1141.0,170.5L1150.0,170.5L1158.0,140.5L1165.0,140.5L1167.5,143.0L1172.5,164.0L1181.5,186.0L1170.0,189.5L1166.5,193.0L1164.5,207.0L1166.5,215.0L1164.0,214.5L1164.0,212.5L1157.5,213.0L1162.5,229.0L1156.5,239.0L1177.0,269.5L1187.0,269.5L1187.0,263.5L1192.5,267.0L1190.5,273.0L1178.5,284.0L1179.5,290.0L1182.5,293.0L1181.5,295.0L1183.5,295.0L1187.5,304.0L1175.5,316.0L1181.0,321.5L1188.0,319.5L1190.5,326.0L1179.0,339.5Z"/>
<path d="M634.0,171.5L628.0,171.5L624.5,167.0L626.5,158.0L631.0,151.5L638.5,162.0L638.5,169.0L634.0,171.5Z"/>
<path d="M867.0,165.5L863.5,164.0L864.0,161.5L880.5,154.0L879.0,162.5L867.0,165.5Z"/>
<path d="M896.0,543.5L885.5,536.0L880.5,525.0L865.0,504.5L855.0,508.5L853.0,504.5L845.0,499.5L833.0,500.5L829.5,504.0L821.5,519.0L821.5,527.0L819.0,530.5L813.0,526.5L794.0,540.5L789.5,536.0L791.5,505.0L781.5,496.0L781.5,486.0L774.5,480.0L768.5,468.0L761.5,465.0L762.5,458.0L760.0,455.5L737.5,454.0L740.5,437.0L733.5,426.0L732.5,417.0L729.5,414.0L733.5,406.0L729.5,379.0L720.5,368.0L728.0,360.5L734.0,361.5L736.5,359.0L739.5,341.0L747.5,332.0L749.5,326.0L744.5,317.0L731.5,302.0L728.5,285.0L734.0,281.5L736.5,285.0L735.5,287.0L740.0,287.5L748.0,278.5L759.0,275.5L768.0,282.5L789.0,274.5L792.0,275.5L793.5,271.0L789.5,262.0L790.5,259.0L803.0,257.5L810.0,253.5L823.5,266.0L820.5,267.0L820.5,270.0L828.0,276.5L844.0,283.5L855.0,285.5L855.5,279.0L850.5,265.0L852.0,263.5L864.0,264.5L869.0,254.5L882.0,252.5L882.5,248.0L886.0,246.5L888.5,242.0L877.5,230.0L876.5,223.0L880.0,218.5L904.0,205.5L916.0,195.5L921.5,197.0L921.0,203.5L950.0,197.5L963.5,171.0L976.0,164.5L983.0,165.5L989.0,171.5L993.0,171.5L1004.0,161.5L1007.0,161.5L1021.5,170.0L1012.5,188.0L1012.5,200.0L1016.5,207.0L1033.0,207.5L1040.5,218.0L1032.0,228.5L1020.5,237.0L1025.5,243.0L1024.5,249.0L1029.5,253.0L1030.5,262.0L1037.5,270.0L1031.5,278.0L1031.5,282.0L1025.0,283.5L1016.5,292.0L1020.5,300.0L1011.5,306.0L1012.5,319.0L1026.5,337.0L1027.5,350.0L1021.0,350.5L1015.0,358.5L999.0,359.5L996.5,364.0L1003.5,379.0L997.5,386.0L1001.5,398.0L1012.5,413.0L1008.5,415.0L1007.5,426.0L997.5,430.0L997.5,439.0L983.5,447.0L983.5,468.0L980.5,473.0L986.5,478.0L985.5,486.0L996.5,493.0L995.5,504.0L997.5,513.0L991.0,515.5L986.0,521.5L984.0,520.5L985.5,523.0L984.0,524.5L971.0,529.5L963.0,535.5L948.0,536.5L948.0,538.5L943.0,538.5L937.0,534.5L920.0,538.5L907.0,536.5L896.0,543.5Z"/>
<path d="M839.0,196.5L829.5,193.0L826.5,180.0L840.0,179.5L839.5,172.0L841.0,171.5L846.0,178.5L853.5,182.0L847.0,190.5L839.0,196.5Z"/>
<path d="M648.0,196.5L633.5,192.0L631.5,179.0L634.0,175.5L645.0,174.5L649.5,177.0L650.5,194.0L648.0,196.5Z"/>
<path d="M657.0,209.5L655.5,204.0L657.5,192.0L661.0,187.5L666.0,191.5L670.5,192.0L673.5,201.0L657.0,209.5Z"/>
<path d="M1058.0,358.5L1055.5,358.0L1055.5,355.0L1058.5,349.0L1050.0,339.5L1037.0,336.5L1030.0,340.5L1027.5,333.0L1015.5,319.0L1014.5,307.0L1025.5,301.0L1019.5,293.0L1029.0,285.5L1035.5,287.0L1034.5,279.0L1041.5,271.0L1032.5,259.0L1032.5,252.0L1028.5,248.0L1029.5,242.0L1024.5,238.0L1036.0,227.5L1041.5,226.0L1043.5,219.0L1042.0,211.5L1050.0,217.5L1053.0,217.5L1072.0,207.5L1087.0,202.5L1093.0,210.5L1100.5,214.0L1104.0,222.5L1111.0,221.5L1126.5,236.0L1129.5,254.0L1124.0,253.5L1116.0,245.5L1113.0,245.5L1099.5,265.0L1110.5,304.0L1118.0,313.5L1121.0,311.5L1122.5,313.0L1116.5,320.0L1111.0,339.5L1107.5,339.0L1107.5,331.0L1103.0,330.5L1087.5,338.0L1084.5,342.0L1086.0,352.5L1080.0,355.5L1061.0,355.5L1058.0,358.5Z"/>
<path d="M641.0,692.5L628.0,692.5L620.5,688.0L629.5,678.0L635.5,668.0L635.5,664.0L623.5,636.0L607.0,636.5L603.5,632.0L607.5,620.0L600.5,608.0L608.5,592.0L608.5,586.0L596.5,581.0L596.5,576.0L604.5,570.0L605.5,567.0L603.5,563.0L601.0,560.5L596.0,560.5L586.0,550.5L567.5,548.0L569.5,543.0L567.5,533.0L581.5,523.0L580.0,519.5L570.5,513.0L569.5,509.0L579.5,497.0L578.5,485.0L583.5,478.0L583.5,464.0L573.5,458.0L573.5,445.0L567.5,441.0L566.5,426.0L561.5,415.0L560.5,408.0L567.5,395.0L566.5,381.0L564.5,381.0L562.0,375.5L555.0,376.5L547.5,367.0L555.5,361.0L559.5,353.0L559.5,347.0L553.5,339.0L555.5,336.0L560.0,331.5L566.0,336.5L573.5,336.0L573.5,327.0L565.5,316.0L566.5,302.0L600.0,297.5L600.5,293.0L597.5,286.0L605.5,275.0L614.0,267.5L628.0,261.5L636.0,254.5L638.0,255.5L638.0,253.5L646.0,258.5L659.0,252.5L660.5,246.0L667.5,242.0L666.5,232.0L668.5,228.0L675.0,219.5L679.0,218.5L681.5,221.0L676.5,229.0L678.0,230.5L687.0,229.5L691.0,237.5L700.0,230.5L714.0,230.5L723.5,239.0L724.5,258.0L703.5,291.0L699.5,301.0L701.0,302.5L710.0,301.5L724.0,289.5L728.5,305.0L737.5,314.0L744.5,325.0L743.5,327.0L745.5,327.0L735.5,341.0L733.5,355.0L727.0,356.5L714.5,370.0L725.5,380.0L729.5,405.0L724.5,414.0L728.5,418.0L730.5,429.0L736.5,438.0L733.5,446.0L734.5,457.0L752.5,459.0L744.5,466.0L744.5,484.0L749.5,490.0L747.5,503.0L740.5,511.0L738.5,521.0L740.5,530.0L743.0,529.5L748.5,534.0L744.5,545.0L751.5,550.0L748.0,558.5L733.0,551.5L725.5,553.0L726.5,562.0L716.5,578.0L715.0,586.5L706.0,576.5L704.0,576.5L700.0,582.5L689.5,584.0L683.5,596.0L687.5,611.0L679.5,620.0L679.5,642.0L670.5,649.0L679.5,661.0L664.0,665.5L650.5,687.0L641.0,692.5Z"/>
<path d="M418.0,307.5L405.5,297.0L402.5,280.0L405.0,273.5L410.0,271.5L424.0,258.5L430.0,257.5L440.0,246.5L460.0,231.5L516.5,223.0L517.5,225.0L513.0,231.5L479.0,237.5L450.0,253.5L435.0,265.5L417.5,287.0L418.0,307.5Z"/>
<path d="M287.0,308.5L277.0,307.5L265.5,298.0L259.5,287.0L255.5,263.0L251.0,261.5L244.0,269.5L241.0,269.5L242.5,263.0L232.5,254.0L235.0,249.5L245.0,247.5L249.5,244.0L253.5,228.0L261.0,224.5L271.0,223.5L287.5,226.0L287.0,228.5L282.5,230.0L282.5,234.0L292.5,256.0L297.5,292.0L295.5,306.0L287.0,308.5Z"/>
<path d="M210.0,361.5L202.0,355.5L194.0,355.5L182.0,340.5L175.0,344.5L171.0,343.5L166.5,337.0L158.5,316.0L190.0,311.5L192.5,308.0L194.5,294.0L202.0,290.5L209.5,278.0L221.0,269.5L231.0,257.5L238.5,263.0L237.5,270.0L243.5,274.0L245.5,289.0L233.5,299.0L226.5,309.0L230.5,325.0L225.0,325.5L218.5,332.0L217.5,349.0L213.5,359.0L210.0,361.5Z"/>
<path d="M1252.0,379.5L1201.0,354.5L1200.0,351.5L1198.0,352.5L1192.0,349.5L1181.5,342.0L1193.5,328.0L1189.0,316.5L1183.0,318.5L1179.5,316.0L1190.5,304.0L1181.5,284.0L1186.0,281.5L1195.0,270.5L1211.0,274.5L1212.5,276.0L1209.5,282.0L1212.5,292.0L1215.0,295.5L1227.5,300.0L1228.5,305.0L1223.5,312.0L1223.5,319.0L1228.0,325.5L1236.5,331.0L1236.5,349.0L1247.5,361.0L1252.0,379.5Z"/>
<path d="M420.0,381.5L381.0,364.5L359.0,350.5L317.0,350.5L312.5,344.0L311.5,337.0L309.5,337.0L306.5,332.0L313.5,327.0L312.5,317.0L323.5,309.0L328.0,299.5L333.5,306.0L334.5,313.0L332.0,315.5L323.0,313.5L316.5,318.0L319.0,335.5L330.0,337.5L340.0,328.5L381.0,329.5L373.5,335.0L379.0,343.5L396.0,342.5L400.0,344.5L413.0,344.5L413.5,351.0L419.0,353.5L425.0,352.5L430.5,348.0L431.0,336.5L444.0,342.5L451.5,352.0L447.5,358.0L451.5,367.0L446.0,366.5L440.0,372.5L420.0,381.5Z"/>
<path d="M569.0,503.5L555.0,497.5L550.0,497.5L540.0,487.5L529.0,494.5L516.0,494.5L503.0,482.5L492.0,480.5L480.0,472.5L471.0,472.5L465.5,460.0L465.5,455.0L459.0,447.5L452.0,446.5L444.0,448.5L438.5,445.0L436.0,436.5L414.0,432.5L409.5,427.0L415.0,406.5L426.0,399.5L441.0,396.5L453.5,384.0L455.5,380.0L451.5,374.0L455.5,368.0L455.5,364.0L453.0,356.5L471.0,379.5L477.5,374.0L476.5,355.0L471.5,350.0L480.5,334.0L478.5,328.0L484.0,322.5L494.0,317.5L493.5,315.0L506.0,301.5L514.0,304.5L516.5,308.0L504.5,329.0L506.5,343.0L497.5,372.0L501.5,384.0L496.5,393.0L484.0,406.5L463.0,403.5L462.5,407.0L474.0,418.5L484.0,421.5L500.0,413.5L512.5,402.0L512.5,386.0L515.0,382.5L520.0,381.5L523.5,384.0L526.5,396.0L529.0,398.5L537.5,395.0L534.5,379.0L525.0,372.5L515.0,370.5L512.5,363.0L520.5,349.0L517.5,330.0L529.0,320.5L525.5,337.0L540.0,345.5L545.0,345.5L547.5,341.0L537.5,327.0L542.0,329.5L547.0,328.5L548.5,327.0L547.0,321.5L555.5,331.0L548.5,339.0L554.5,346.0L555.5,353.0L554.5,356.0L545.5,363.0L543.5,368.0L552.0,380.5L560.0,379.5L561.5,382.0L564.5,392.0L556.5,406.0L557.5,415.0L563.5,430.0L564.5,444.0L569.5,447.0L570.5,461.0L579.5,466.0L579.5,477.0L573.5,485.0L575.5,496.0L569.0,503.5Z"/>
<path d="M284.0,426.5L263.0,421.5L262.5,416.0L255.0,408.5L249.0,409.5L246.0,403.5L236.0,403.5L235.0,399.5L223.0,394.5L206.5,378.0L210.5,365.0L215.5,363.0L221.5,349.0L219.5,343.0L220.5,335.0L227.0,328.5L235.0,334.5L239.0,334.5L245.0,330.5L244.5,316.0L247.0,312.5L249.5,318.0L249.5,326.0L260.0,336.5L264.5,336.0L268.5,326.0L274.0,321.5L290.0,321.5L298.0,334.5L305.5,335.0L315.0,353.5L326.5,354.0L321.5,366.0L324.5,378.0L323.0,379.5L311.0,378.5L298.0,367.5L285.5,368.0L289.5,379.0L288.5,391.0L282.5,394.0L279.5,406.0L283.0,409.5L286.0,409.5L292.0,403.5L296.0,403.5L298.5,407.0L289.5,415.0L284.0,426.5Z"/>
<path d="M27.0,335.5L21.0,335.5L17.5,332.0L7.0,314.5L13.0,314.5L12.5,317.0L19.0,321.5L24.5,320.0L28.5,332.0L27.0,335.5Z"/>
<path d="M163.0,376.5L160.5,375.0L154.5,360.0L149.0,359.5L145.0,351.5L136.0,352.5L127.0,347.5L122.5,349.0L118.5,332.0L120.0,329.5L131.0,330.5L134.5,334.0L137.0,342.5L149.0,343.5L151.5,342.0L154.5,334.0L144.5,327.0L142.5,322.0L148.0,315.5L151.0,315.5L154.5,317.0L168.0,346.5L177.0,347.5L181.0,344.5L183.5,347.0L188.5,354.0L175.0,363.5L171.5,371.0L163.0,376.5Z"/>
<path d="M96.0,390.5L92.5,390.0L82.5,364.0L96.0,343.5L102.0,342.5L108.0,334.5L115.0,332.5L119.5,350.0L114.5,352.0L114.5,363.0L101.5,378.0L100.5,387.0L96.0,390.5Z"/>
<path d="M148.0,340.5L140.0,340.5L138.5,335.0L146.0,336.5L148.0,332.5L150.5,335.0L148.0,340.5Z"/>
<path d="M1121.0,620.5L1118.5,615.0L1119.5,608.0L1111.5,593.0L1107.0,589.5L1096.0,594.5L1085.0,591.5L1070.0,600.5L1060.0,588.5L1050.5,586.0L1048.5,581.0L1048.5,568.0L1053.5,554.0L1057.5,550.0L1054.5,543.0L1065.5,537.0L1058.5,520.0L1055.0,517.5L1048.0,525.5L1043.0,526.5L1042.5,532.0L1031.0,541.5L1026.0,535.5L1015.0,538.5L1014.5,534.0L1021.5,511.0L1020.5,505.0L1013.0,501.5L1001.0,509.5L998.5,504.0L999.5,492.0L988.5,484.0L989.5,476.0L985.5,473.0L985.5,449.0L1000.5,441.0L1000.5,432.0L1010.5,428.0L1010.5,417.0L1017.5,416.0L1003.5,395.0L1002.5,386.0L1007.5,379.0L999.5,364.0L1016.0,361.5L1023.0,352.5L1030.0,353.5L1031.5,352.0L1030.5,345.0L1037.0,339.5L1045.0,340.5L1053.5,347.0L1055.5,350.0L1051.5,357.0L1056.0,362.5L1062.0,359.5L1080.5,360.0L1070.5,365.0L1070.5,369.0L1062.5,374.0L1045.5,396.0L1049.5,404.0L1045.5,418.0L1050.5,425.0L1050.5,429.0L1046.5,442.0L1048.5,470.0L1041.5,501.0L1050.0,502.5L1060.0,496.5L1070.0,503.5L1070.5,497.0L1074.0,496.5L1075.5,504.0L1079.0,504.5L1087.5,496.0L1083.5,488.0L1083.5,485.0L1087.0,481.5L1108.0,481.5L1110.5,483.0L1112.0,488.5L1124.5,496.0L1131.5,518.0L1156.5,554.0L1157.5,576.0L1146.0,564.5L1136.5,576.0L1138.0,582.5L1147.5,583.0L1147.5,590.0L1143.0,589.5L1140.5,592.0L1144.5,601.0L1138.0,606.5L1127.0,606.5L1120.5,616.0L1121.0,620.5Z"/>
<path d="M161.0,389.5L149.0,386.5L142.0,379.5L128.0,382.5L113.0,378.5L109.5,374.0L118.5,364.0L118.5,356.0L116.5,355.0L126.0,351.5L130.0,354.5L143.0,354.5L145.5,357.0L145.5,362.0L152.5,364.0L158.5,378.0L156.5,384.0L161.0,389.5Z"/>
<path d="M360.0,460.5L346.0,455.5L318.0,455.5L310.0,446.5L306.0,445.5L297.0,445.5L293.0,454.5L274.0,452.5L268.5,456.0L266.5,445.0L270.5,441.0L273.5,429.0L285.0,430.5L290.5,423.0L290.5,419.0L302.5,407.0L298.0,400.5L290.0,400.5L287.0,404.5L282.5,405.0L284.5,397.0L291.5,394.0L292.5,378.0L289.5,370.0L293.0,369.5L300.0,373.5L307.0,381.5L311.0,380.5L316.0,381.5L316.0,383.5L324.0,383.5L327.5,379.0L324.5,366.0L330.5,355.0L343.0,353.5L361.0,354.5L385.0,370.5L417.0,384.5L427.0,382.5L448.0,370.5L446.5,377.0L450.5,381.0L440.0,392.5L426.0,395.5L397.0,411.5L394.0,409.5L383.5,419.0L382.5,426.0L372.5,434.0L360.0,460.5Z"/>
<path d="M243.0,438.5L231.0,435.5L216.0,419.5L204.0,419.5L193.0,422.5L190.5,408.0L187.0,404.5L182.0,405.5L174.5,399.0L173.5,396.0L175.5,394.0L166.0,391.5L165.5,387.0L160.5,383.0L171.0,375.5L184.0,359.5L203.0,359.5L207.5,364.0L203.5,374.0L203.5,379.0L207.5,384.0L217.0,391.5L219.0,395.5L230.0,401.5L233.0,406.5L244.0,406.5L247.0,412.5L255.0,412.5L256.5,418.0L260.5,420.0L259.0,424.5L251.5,428.0L250.5,431.0L252.5,435.0L243.0,438.5Z"/>
<path d="M156.0,426.5L153.0,423.5L138.0,420.5L133.0,415.5L125.0,416.5L117.0,407.5L106.0,406.5L97.5,394.0L102.5,391.0L105.5,380.0L107.0,378.5L112.0,382.5L132.0,387.5L141.0,383.5L149.0,391.5L169.0,395.5L170.5,399.0L160.5,412.0L159.5,423.0L156.0,426.5Z"/>
<path d="M111.0,429.5L99.0,429.5L96.0,425.5L83.0,429.5L75.5,428.0L74.5,424.0L78.5,407.0L89.0,393.5L97.5,400.0L103.0,409.5L115.0,409.5L120.5,417.0L115.5,428.0L111.0,429.5Z"/>
<path d="M161.0,435.5L156.5,433.0L163.5,422.0L162.5,415.0L166.5,409.0L172.0,404.5L175.0,404.5L181.0,410.5L186.0,408.5L189.5,425.0L179.0,433.5L165.0,433.5L161.0,435.5Z"/>
<path d="M477.0,555.5L463.0,551.5L450.5,531.0L434.0,520.5L430.0,519.5L420.0,530.5L401.0,536.5L398.0,536.5L394.5,532.0L393.5,521.0L385.5,515.0L386.5,504.0L384.5,495.0L387.5,485.0L378.5,470.0L371.0,465.5L368.5,461.0L368.5,454.0L374.5,439.0L386.5,427.0L386.5,422.0L392.0,415.5L397.0,416.5L410.0,408.5L410.5,419.0L406.5,428.0L413.0,435.5L427.0,436.5L435.0,439.5L436.5,447.0L443.0,451.5L456.0,448.5L461.5,453.0L463.5,464.0L470.0,474.5L477.0,474.5L492.0,483.5L504.0,485.5L515.0,497.5L530.0,497.5L539.0,490.5L548.0,499.5L553.0,499.5L563.0,504.5L568.5,517.0L575.5,522.0L565.0,529.5L558.0,526.5L546.0,533.5L535.0,528.5L523.0,528.5L519.0,524.5L502.0,524.5L493.5,544.0L488.0,544.5L477.0,555.5Z"/>
<path d="M132.0,463.5L129.5,463.0L131.5,454.0L129.5,454.0L126.5,447.0L127.5,439.0L118.5,429.0L126.0,418.5L131.0,418.5L135.0,422.5L154.5,429.0L150.5,432.0L147.5,440.0L148.5,447.0L153.5,453.0L151.5,458.0L148.0,460.5L139.0,460.5L132.0,463.5Z M135.5,447.0L144.5,445.0L143.0,433.5L131.5,434.0L131.5,445.0L133.0,447.5L135.5,447.0Z"/>
<path d="M230.0,456.5L227.0,456.5L219.0,450.5L213.0,453.5L206.0,453.5L198.5,448.0L197.5,443.0L192.0,437.5L180.5,436.0L202.0,423.5L216.0,424.5L230.0,439.5L239.0,442.5L248.5,441.0L245.5,447.0L246.0,451.5L238.0,451.5L230.0,456.5Z"/>
<path d="M251.0,510.5L244.5,484.0L229.0,481.5L224.0,484.5L222.5,479.0L228.0,472.5L235.0,474.5L239.5,470.0L232.5,460.0L239.0,455.5L250.0,455.5L250.5,446.0L257.5,434.0L256.5,430.0L267.0,425.5L269.5,428.0L269.5,432.0L261.5,445.0L265.5,461.0L268.0,462.5L276.0,455.5L279.0,455.5L295.0,458.5L303.5,467.0L299.0,471.5L295.5,472.0L292.5,477.0L294.5,483.0L290.0,489.5L281.0,484.5L273.0,483.5L266.0,494.5L258.5,496.0L256.5,504.0L251.5,507.0L251.0,510.5Z"/>
<path d="M76.0,459.5L70.0,459.5L70.5,451.0L60.0,449.5L58.5,443.0L53.5,439.0L60.0,429.5L70.0,434.5L85.0,431.5L89.5,433.0L89.5,438.0L84.5,447.0L85.5,452.0L76.0,459.5Z"/>
<path d="M100.0,451.5L92.0,451.5L87.5,449.0L93.5,437.0L93.0,429.5L98.0,432.5L116.0,431.5L122.5,437.0L123.5,444.0L120.0,447.5L117.0,448.5L109.0,445.5L100.0,451.5Z"/>
<path d="M163.0,471.5L153.5,461.0L157.5,452.0L150.5,444.0L153.0,434.5L157.0,438.5L164.0,438.5L163.5,445.0L180.5,461.0L180.0,463.5L163.0,471.5Z"/>
<path d="M185.0,460.5L181.5,458.0L182.0,455.5L166.5,444.0L168.0,436.5L173.0,436.5L184.0,441.5L191.0,440.5L195.5,446.0L195.5,452.0L200.5,454.0L195.0,457.5L190.0,455.5L185.0,460.5Z"/>
<path d="M113.0,476.5L110.5,476.0L103.5,463.0L102.5,454.0L109.0,449.5L119.0,451.5L124.0,448.5L127.5,456.0L126.5,464.0L123.0,471.5L113.0,476.5Z"/>
<path d="M301.0,541.5L294.0,531.5L286.0,529.5L279.5,521.0L285.5,517.0L291.5,502.0L292.5,492.0L297.5,487.0L296.5,477.0L299.0,474.5L301.0,475.5L306.5,468.0L298.5,457.0L298.5,451.0L307.0,449.5L313.0,457.5L321.0,460.5L342.0,458.5L357.0,463.5L358.5,465.0L352.5,479.0L347.5,481.0L349.5,482.0L346.0,486.5L336.5,492.0L337.5,504.0L339.5,504.0L337.5,512.0L329.0,516.5L326.0,522.5L318.0,521.5L313.0,529.5L305.0,530.5L301.0,541.5Z"/>
<path d="M95.0,483.5L90.5,482.0L88.5,473.0L79.5,462.0L88.0,454.5L99.0,455.5L100.5,466.0L104.5,469.0L103.5,476.0L99.0,482.5L95.0,483.5Z"/>
<path d="M184.0,500.5L182.0,500.5L178.5,495.0L177.5,481.0L168.0,479.5L165.5,477.0L167.0,473.5L185.0,465.5L190.0,460.5L197.0,461.5L204.0,457.5L216.0,455.5L219.0,455.5L235.5,468.0L234.0,470.5L225.0,470.5L220.0,476.5L216.0,473.5L206.0,476.5L204.5,487.0L199.5,491.0L199.5,497.0L196.0,498.5L194.0,495.5L184.0,500.5Z"/>
<path d="M769.0,688.5L761.0,685.5L755.0,677.5L738.0,672.5L727.0,666.5L722.0,659.5L712.0,666.5L708.0,664.5L703.0,665.5L689.0,657.5L680.0,656.5L674.5,649.0L682.5,644.0L684.5,630.0L682.5,622.0L691.5,611.0L690.5,603.0L687.5,599.0L690.5,588.0L702.0,585.5L706.0,581.5L713.0,589.5L717.0,589.5L720.5,577.0L730.5,563.0L728.5,556.0L731.0,554.5L738.0,557.5L738.0,559.5L751.5,561.0L754.5,548.0L748.5,543.0L750.5,531.0L743.5,526.0L741.5,522.0L742.5,515.0L749.5,505.0L752.5,491.0L752.5,487.0L746.5,482.0L747.5,467.0L756.0,460.5L758.5,462.0L755.5,468.0L765.5,470.0L771.5,483.0L777.5,488.0L777.5,497.0L783.5,505.0L787.5,507.0L784.5,537.0L791.0,543.5L796.0,543.5L812.0,531.5L819.0,536.5L823.5,532.0L828.5,514.0L836.0,503.5L843.0,503.5L854.0,512.5L863.0,509.5L876.5,526.0L866.0,527.5L863.5,530.0L863.5,541.0L871.5,548.0L871.0,555.5L864.0,558.5L862.0,551.5L857.0,552.5L850.5,558.0L847.5,567.0L844.0,570.5L834.0,572.5L831.0,567.5L826.0,570.5L817.0,569.5L814.0,575.5L803.0,576.5L802.5,580.0L794.5,586.0L793.5,592.0L799.5,596.0L798.5,609.0L804.5,626.0L803.5,639.0L801.5,646.0L783.5,667.0L781.5,673.0L772.5,683.0L773.5,685.0L769.0,688.5Z M774.5,670.0L783.5,655.0L782.0,645.5L769.0,646.5L763.0,641.5L759.0,641.5L753.0,645.5L742.5,644.0L742.5,649.0L748.0,659.5L764.0,660.5L771.0,670.5L774.5,670.0Z"/>
<path d="M366.0,563.5L354.0,557.5L345.0,560.5L325.0,551.5L322.0,547.5L314.0,548.5L305.5,543.0L306.5,536.0L309.0,533.5L315.0,533.5L320.0,526.5L329.0,526.5L330.5,521.0L341.5,514.0L343.5,503.0L340.5,496.0L356.5,480.0L365.0,461.5L366.5,465.0L375.5,472.0L383.5,484.0L380.5,499.0L383.5,506.0L381.5,516.0L391.5,525.0L393.5,536.0L393.5,544.0L382.0,544.5L377.5,552.0L375.5,561.0L370.0,560.5L366.0,563.5Z"/>
<path d="M90.0,497.5L85.0,492.5L63.5,483.0L60.5,470.0L68.0,462.5L76.0,463.5L84.5,473.0L87.5,483.0L95.5,492.0L90.0,497.5Z"/>
<path d="M152.0,492.5L146.0,488.5L139.0,489.5L127.5,483.0L122.5,476.0L130.0,466.5L144.0,463.5L152.5,465.0L163.5,480.0L155.0,489.5L152.5,489.0L152.0,492.5Z"/>
<path d="M1203.0,567.5L1195.5,563.0L1179.5,538.0L1165.5,526.0L1146.5,502.0L1127.5,491.0L1118.5,477.0L1120.5,472.0L1120.0,463.5L1123.0,468.5L1134.5,477.0L1140.0,486.5L1144.0,486.5L1182.5,509.0L1173.5,517.0L1184.5,543.0L1191.0,547.5L1212.5,555.0L1200.5,556.0L1203.0,567.5Z"/>
<path d="M118.0,505.5L113.0,505.5L108.5,498.0L95.5,487.0L99.0,486.5L107.0,476.5L107.5,479.0L111.0,480.5L119.0,477.5L126.5,486.0L126.5,488.0L118.5,494.0L118.0,505.5Z"/>
<path d="M224.0,502.5L217.0,488.5L207.5,487.0L209.0,478.5L215.0,477.5L219.0,479.5L221.0,488.5L233.0,484.5L241.0,486.5L243.5,490.0L243.0,501.5L236.0,498.5L224.0,502.5Z"/>
<path d="M191.0,514.5L173.0,508.5L170.0,509.5L162.0,500.5L154.5,496.0L166.0,483.5L175.0,484.5L175.5,496.0L181.0,504.5L193.5,500.0L195.5,507.0L191.0,514.5Z"/>
<path d="M79.0,523.5L76.5,522.0L74.5,505.0L67.0,501.5L60.5,493.0L63.0,486.5L83.0,495.5L87.5,501.0L86.5,515.0L79.0,523.5Z"/>
<path d="M270.0,528.5L267.5,528.0L269.5,526.0L269.0,517.5L254.0,521.5L252.5,514.0L259.5,506.0L260.5,499.0L267.0,497.5L273.5,488.0L277.0,486.5L288.5,492.0L288.5,501.0L282.5,515.0L276.5,518.0L277.5,524.0L270.0,528.5Z"/>
<path d="M130.0,523.5L118.5,512.0L118.5,509.0L121.5,507.0L121.5,496.0L130.0,489.5L134.0,489.5L137.0,493.5L146.0,492.5L147.5,495.0L144.5,497.0L144.5,516.0L130.0,523.5Z"/>
<path d="M210.0,512.5L201.0,512.5L197.5,509.0L199.5,503.0L197.5,502.0L201.5,500.0L204.0,490.5L215.0,491.5L219.5,500.0L219.0,503.5L211.5,507.0L210.0,512.5Z"/>
<path d="M97.0,538.5L86.0,535.5L80.5,527.0L89.5,516.0L90.5,501.0L98.0,495.5L102.0,495.5L108.5,506.0L115.5,511.0L118.5,518.0L126.5,526.0L126.5,532.0L121.0,528.5L109.0,528.5L104.0,535.5L97.0,538.5Z"/>
<path d="M176.0,538.5L163.0,534.5L147.5,521.0L149.0,498.5L158.0,501.5L168.0,512.5L175.0,512.5L182.5,518.0L183.5,531.0L176.0,538.5Z"/>
<path d="M251.0,554.5L242.5,546.0L242.0,539.5L236.0,535.5L229.0,537.5L221.0,523.5L215.0,522.5L212.0,517.5L203.5,516.0L214.0,515.5L216.0,507.5L237.0,501.5L245.5,505.0L248.5,519.0L252.0,524.5L267.0,521.5L263.5,532.0L268.5,535.0L256.5,540.0L255.5,548.0L251.0,554.5Z"/>
<path d="M1027.0,618.5L1013.5,606.0L1015.0,604.5L1010.0,603.5L1002.0,593.5L1000.0,594.5L983.0,579.5L955.0,580.5L940.0,587.5L933.5,582.0L935.5,575.0L929.5,567.0L927.5,556.0L921.0,556.5L919.0,559.5L913.0,552.5L907.0,556.5L906.5,551.0L899.5,545.0L905.0,540.5L919.0,541.5L934.0,537.5L944.0,542.5L955.0,538.5L963.0,538.5L985.0,527.5L992.0,518.5L998.0,516.5L1012.0,505.5L1017.0,505.5L1018.5,508.0L1011.5,534.0L1013.0,542.5L1025.0,539.5L1029.0,545.5L1035.0,543.5L1045.5,534.0L1045.5,530.0L1056.0,522.5L1062.5,536.0L1050.5,541.0L1054.5,548.0L1050.5,553.0L1045.5,567.0L1045.5,582.0L1050.0,590.5L1059.0,591.5L1064.5,597.0L1066.5,600.0L1064.5,609.0L1062.0,613.5L1047.0,611.5L1027.0,618.5Z"/>
<path d="M192.0,546.5L178.5,541.0L187.5,533.0L185.5,519.0L193.0,517.5L196.0,512.5L201.0,519.5L209.0,520.5L213.0,524.5L218.0,525.5L223.5,534.0L217.0,540.5L209.0,534.5L193.0,535.5L192.0,546.5Z"/>
<path d="M167.0,590.5L158.5,571.0L159.5,569.0L155.0,567.5L151.0,561.5L145.5,560.0L144.5,546.0L142.0,543.5L133.0,541.5L129.5,538.0L131.5,528.0L142.0,521.5L160.0,536.5L171.0,539.5L189.0,549.5L200.5,572.0L201.0,577.5L181.0,581.5L176.0,580.5L170.5,584.0L167.0,590.5Z"/>
<path d="M417.0,603.5L403.0,598.5L389.0,581.5L382.0,579.5L378.5,576.0L376.5,567.0L383.0,549.5L396.0,547.5L398.0,539.5L421.0,532.5L432.0,522.5L447.5,532.0L461.0,553.5L473.5,559.0L467.0,563.5L445.0,560.5L441.5,558.0L439.5,552.0L436.0,550.5L427.5,564.0L427.5,572.0L429.0,574.5L434.5,576.0L435.5,583.0L425.5,587.0L421.5,598.0L417.0,603.5Z"/>
<path d="M279.0,616.5L273.0,612.5L262.5,613.0L262.5,604.0L266.5,594.0L257.5,593.0L258.5,587.0L251.5,569.0L251.5,559.0L258.5,548.0L259.5,542.0L270.0,538.5L270.5,532.0L280.0,527.5L285.0,533.5L292.0,534.5L298.0,543.5L317.0,552.5L317.5,556.0L315.0,562.5L305.0,561.5L299.0,556.5L287.5,562.0L292.0,575.5L312.0,577.5L312.5,580.0L309.0,584.5L301.0,584.5L293.5,592.0L287.5,607.0L279.0,616.5Z"/>
<path d="M550.0,620.5L546.0,607.5L531.0,607.5L519.0,604.5L508.0,592.5L482.5,584.0L478.5,574.0L477.5,564.0L489.0,548.5L494.0,549.5L496.5,547.0L504.0,527.5L517.0,528.5L521.0,532.5L535.0,532.5L545.0,537.5L559.0,531.5L566.5,541.0L564.5,549.0L567.0,551.5L585.0,553.5L593.0,562.5L601.5,566.0L593.5,575.0L593.5,583.0L605.5,589.0L599.5,599.0L599.5,605.0L575.0,609.5L572.0,612.5L558.0,615.5L550.0,620.5Z"/>
<path d="M831.0,707.5L823.0,707.5L816.5,703.0L816.5,698.0L822.5,692.0L816.5,687.0L819.5,683.0L818.5,677.0L825.0,675.5L832.0,670.5L839.0,669.5L848.5,658.0L849.5,654.0L864.5,642.0L868.5,636.0L868.5,630.0L862.5,625.0L862.5,621.0L874.5,604.0L883.5,597.0L882.5,590.0L868.5,581.0L859.5,565.0L860.0,562.5L874.5,557.0L875.5,547.0L867.5,542.0L866.5,531.0L878.0,529.5L880.5,536.0L896.0,549.5L900.0,550.5L905.0,559.5L909.0,561.5L913.0,558.5L918.0,564.5L924.5,562.0L930.5,576.0L928.5,582.0L938.5,591.0L930.5,599.0L926.5,608.0L926.5,612.0L933.0,615.5L937.5,621.0L933.5,632.0L933.5,649.0L936.5,659.0L927.5,666.0L928.5,668.0L926.0,670.5L916.0,671.5L907.0,669.5L901.0,675.5L887.0,673.5L899.5,664.0L895.5,659.0L894.0,650.5L882.0,649.5L874.5,656.0L870.0,665.5L863.0,665.5L856.5,673.0L872.0,676.5L882.5,675.0L872.5,690.0L853.0,704.5L831.0,707.5Z"/>
<path d="M136.0,595.5L133.0,589.5L117.0,589.5L113.0,591.5L109.0,584.5L104.0,590.5L100.0,591.5L89.5,588.0L89.5,576.0L87.5,573.0L97.0,571.5L100.5,568.0L102.5,562.0L99.5,558.0L105.5,552.0L103.5,540.0L108.5,537.0L111.0,532.5L119.0,532.5L129.0,543.5L140.0,547.5L141.5,549.0L140.5,561.0L156.5,574.0L156.5,577.0L144.0,584.5L141.5,591.0L136.0,595.5Z"/>
<path d="M211.0,575.5L206.0,575.5L203.5,573.0L203.5,567.0L201.5,567.0L193.5,551.0L195.5,549.0L196.5,538.0L207.0,537.5L216.0,543.5L224.0,537.5L229.0,541.5L235.0,538.5L238.5,542.0L240.5,551.0L231.0,561.5L228.5,561.0L228.0,564.5L223.0,565.5L211.0,575.5Z"/>
<path d="M83.0,608.5L76.5,606.0L74.5,599.0L69.0,592.5L64.0,596.5L55.5,596.0L49.5,583.0L51.5,573.0L45.0,566.5L41.5,566.0L49.5,564.0L42.5,556.0L45.0,553.5L51.0,553.5L62.0,561.5L72.0,549.5L81.5,544.0L84.0,538.5L91.0,542.5L99.0,541.5L102.5,550.0L96.5,556.0L98.5,562.0L97.5,567.0L84.5,570.0L86.5,590.0L90.5,594.0L91.0,598.5L96.5,599.0L93.0,604.5L87.0,603.5L83.0,608.5Z"/>
<path d="M299.0,645.5L290.0,640.5L282.0,642.5L277.5,638.0L273.0,626.5L263.0,626.5L256.0,618.5L242.0,621.5L237.0,612.5L232.5,613.0L229.5,598.0L221.5,593.0L220.5,585.0L219.0,583.5L210.0,584.5L208.5,579.0L231.0,565.5L244.0,551.5L247.5,557.0L248.5,570.0L255.5,588.0L254.5,595.0L261.5,597.0L258.5,602.0L260.5,607.0L259.5,615.0L262.0,616.5L273.0,615.5L279.0,620.5L281.0,620.5L286.0,613.5L295.0,615.5L293.5,624.0L303.5,639.0L299.0,645.5Z"/>
<path d="M302.0,621.5L299.5,620.0L300.5,614.0L290.5,609.0L298.5,592.0L304.0,587.5L311.0,588.5L317.5,577.0L315.0,573.5L307.0,574.5L297.0,572.5L291.5,565.0L295.0,561.5L299.0,561.5L305.0,565.5L315.0,566.5L318.5,564.0L322.0,554.5L343.0,563.5L344.5,571.0L333.5,587.0L335.0,590.5L343.5,593.0L341.5,597.0L338.0,598.5L321.0,593.5L316.5,598.0L319.5,611.0L309.0,609.5L302.0,621.5Z"/>
<path d="M769.0,708.5L754.0,704.5L749.0,690.5L711.0,682.5L709.5,674.0L722.0,663.5L727.0,670.5L755.0,681.5L759.0,689.5L761.0,688.5L766.0,692.5L773.0,690.5L788.5,666.0L795.5,660.0L805.5,645.0L807.5,623.0L801.5,608.0L803.5,597.0L796.5,589.0L800.0,585.5L803.0,585.5L806.0,579.5L817.0,577.5L820.0,572.5L843.0,575.5L843.0,573.5L851.5,567.0L852.5,561.0L859.0,555.5L856.5,565.0L862.5,578.0L869.0,585.5L880.5,593.0L859.5,620.0L859.5,626.0L865.5,632.0L865.5,635.0L859.0,643.5L847.5,651.0L845.5,657.0L837.0,667.5L829.0,668.5L815.5,675.0L816.5,681.0L813.5,688.0L818.5,692.0L811.0,701.5L805.0,699.5L783.0,699.5L769.0,708.5Z"/>
<path d="M453.0,641.5L442.0,641.5L442.5,635.0L439.0,631.5L430.0,626.5L425.0,626.5L423.5,624.0L422.5,602.0L426.5,599.0L425.5,596.0L428.5,590.0L438.5,586.0L438.5,576.0L430.5,569.0L431.5,562.0L436.0,556.5L440.0,562.5L450.0,565.5L466.0,567.5L473.0,564.5L479.5,587.0L479.5,591.0L475.5,596.0L476.5,602.0L467.0,605.5L463.5,614.0L462.5,621.0L467.5,628.0L465.5,635.0L463.0,638.5L453.0,641.5Z"/>
<path d="M393.0,602.5L345.0,599.5L347.5,592.0L340.0,587.5L338.0,588.5L337.5,586.0L346.5,575.0L346.5,564.0L350.0,561.5L357.0,561.5L367.0,566.5L372.0,563.5L373.5,573.0L377.5,580.0L390.0,586.5L398.5,596.0L398.5,599.0L393.0,602.5Z"/>
<path d="M35.0,622.5L29.0,617.5L21.5,619.0L28.0,610.5L31.0,614.5L33.5,613.0L35.5,604.0L32.5,592.0L20.0,585.5L15.5,588.0L15.5,592.0L19.0,597.5L24.5,600.0L21.0,601.5L17.5,605.0L18.5,608.0L13.5,611.0L17.5,617.0L16.5,619.0L21.5,620.0L16.0,620.5L11.5,616.0L11.5,600.0L5.5,583.0L4.0,571.5L8.0,576.5L11.0,576.5L19.0,571.5L27.0,572.5L29.5,571.0L31.0,563.5L37.0,563.5L37.5,568.0L40.0,570.5L45.0,570.5L48.5,575.0L45.5,583.0L51.5,591.0L51.5,596.0L42.5,600.0L42.5,612.0L35.0,622.5Z"/>
<path d="M1128.0,709.5L1123.5,709.0L1129.5,696.0L1118.5,677.0L1113.0,674.5L1110.5,670.0L1114.0,661.5L1129.5,657.0L1126.5,635.0L1122.5,623.0L1125.5,621.0L1124.5,615.0L1128.0,609.5L1140.0,609.5L1147.5,603.0L1144.5,594.0L1149.0,593.5L1150.5,591.0L1151.5,579.0L1139.5,578.0L1143.5,571.0L1147.0,569.5L1157.5,581.0L1161.5,596.0L1162.5,664.0L1153.0,684.5L1135.0,689.5L1132.5,692.0L1128.0,709.5Z"/>
<path d="M24.0,610.5L21.5,606.0L26.0,603.5L29.5,598.0L22.0,595.5L19.0,589.5L28.0,592.5L28.0,594.5L30.0,593.5L31.5,597.0L32.5,607.0L31.0,608.5L30.0,605.5L26.0,604.5L24.0,610.5Z"/>
<path d="M535.0,658.5L521.0,643.5L485.0,653.5L477.5,645.0L479.5,636.0L478.0,634.5L468.5,636.0L471.5,628.0L466.5,620.0L468.5,610.0L480.5,605.0L478.5,599.0L481.5,596.0L483.0,589.5L509.0,596.5L517.0,607.5L526.0,608.5L530.0,611.5L543.0,610.5L547.0,623.5L557.5,621.0L560.5,646.0L552.0,650.5L542.0,650.5L535.0,658.5Z"/>
<path d="M101.0,652.5L96.0,651.5L89.5,645.0L76.5,611.0L85.0,611.5L88.0,606.5L95.0,607.5L100.5,597.0L93.5,595.0L109.0,591.5L110.0,595.5L115.5,596.0L115.5,613.0L121.5,615.0L119.5,616.0L118.5,627.0L107.5,631.0L110.5,638.0L104.5,643.0L103.5,646.0L105.5,649.0L101.0,652.5Z"/>
<path d="M132.0,647.5L107.5,645.0L113.5,640.0L111.5,633.0L121.5,631.0L121.5,621.0L126.5,613.0L118.5,611.0L118.0,592.5L129.0,592.5L132.5,596.0L130.5,600.0L129.5,617.0L137.5,624.0L138.5,639.0L132.5,642.0L132.0,647.5Z"/>
<path d="M1082.0,626.5L1079.0,626.5L1067.5,614.0L1068.5,604.0L1084.0,595.5L1094.0,597.5L1105.0,594.5L1092.5,616.0L1082.0,626.5Z"/>
<path d="M68.0,655.5L61.0,654.5L63.5,648.0L44.5,636.0L43.5,632.0L46.5,631.0L46.5,628.0L41.5,619.0L46.5,613.0L44.5,603.0L47.0,600.5L55.0,599.5L65.0,607.5L70.0,607.5L75.5,616.0L84.5,643.0L72.0,650.5L68.0,655.5Z"/>
<path d="M598.0,684.5L582.5,679.0L579.5,662.0L563.5,644.0L560.5,621.0L563.0,617.5L584.0,610.5L596.0,609.5L604.5,620.0L603.5,625.0L596.5,633.0L596.5,637.0L599.5,641.0L596.5,652.0L602.0,651.5L603.5,657.0L600.5,664.0L602.5,679.0L598.0,684.5Z"/>
<path d="M34.0,640.5L29.5,638.0L30.5,636.0L27.5,635.0L23.5,629.0L21.5,625.0L23.0,622.5L28.0,620.5L32.0,625.5L39.0,623.5L41.5,626.0L39.5,630.0L42.5,636.0L34.0,640.5Z"/>
<path d="M597.0,701.5L592.5,700.0L591.5,694.0L596.0,691.5L605.5,680.0L603.5,665.0L606.5,661.0L606.5,648.0L600.5,648.0L602.5,643.0L599.5,635.0L601.0,633.5L606.0,639.5L620.0,638.5L621.5,640.0L632.5,667.0L623.5,681.0L613.5,689.0L609.0,697.5L598.0,698.5L597.0,701.5Z"/>
<path d="M45.0,654.5L39.5,653.0L35.5,644.0L37.0,641.5L43.0,639.5L59.5,649.0L57.0,653.5L45.0,654.5Z"/>
<path d="M774.0,667.5L765.0,657.5L751.0,657.5L746.5,652.0L745.5,647.0L755.0,647.5L762.0,644.5L767.0,649.5L779.0,648.5L780.5,656.0L774.0,667.5Z"/>
<path d="M75.0,713.5L67.5,712.0L67.5,701.0L59.5,686.0L61.0,682.5L75.0,680.5L79.5,672.0L84.5,669.0L84.5,664.0L79.0,661.5L73.5,653.0L87.0,646.5L93.5,655.0L89.5,658.0L89.5,675.0L81.5,687.0L80.5,711.0L75.0,713.5Z"/>
<path d="M548.0,712.5L542.0,705.5L517.0,705.5L512.5,694.0L510.0,692.5L503.0,699.5L491.5,671.0L491.5,666.0L486.5,657.0L520.0,646.5L529.5,659.0L535.0,662.5L544.0,653.5L557.0,652.5L563.0,648.5L578.5,666.0L578.5,681.0L576.0,688.5L568.0,687.5L562.0,696.5L544.5,704.0L550.5,709.0L548.0,712.5Z"/>
<path d="M878.0,673.5L860.5,672.0L864.0,667.5L870.0,668.5L873.0,666.5L875.5,660.0L879.0,658.5L884.0,651.5L892.0,652.5L895.5,663.0L890.0,668.5L878.0,673.5Z"/>
<path d="M54.0,666.5L45.0,664.5L41.5,658.0L55.0,656.5L54.0,666.5Z"/>
<path d="M58.0,670.5L56.5,669.0L58.5,667.0L59.0,657.5L73.5,659.0L58.0,670.5Z"/>
<path d="M610.0,725.5L608.5,723.0L610.5,716.0L603.5,701.0L611.0,700.5L617.0,690.5L629.0,695.5L643.0,695.5L653.5,689.0L665.0,669.5L684.0,663.5L684.0,660.5L702.0,668.5L709.5,669.0L705.5,675.0L708.5,687.0L698.5,701.0L703.5,717.0L703.5,720.0L700.0,722.5L667.0,723.5L663.0,714.5L639.0,709.5L610.0,725.5Z"/>
<path d="M70.0,678.5L61.0,678.5L58.5,675.0L75.0,663.5L81.0,665.5L73.5,677.0L70.0,678.5Z"/>
<path d="M588.0,739.5L582.0,738.5L575.0,728.5L571.0,730.5L560.0,729.5L548.5,715.0L552.0,714.5L554.5,710.0L554.5,707.0L550.5,705.0L562.0,700.5L570.0,691.5L577.0,692.5L581.0,682.5L594.5,686.0L589.5,692.0L589.5,703.0L600.0,703.5L607.5,718.0L603.5,723.0L607.5,731.0L595.0,733.5L588.0,739.5Z"/>
</g></svg>