<svg width="101" height="101" fill="none" xmlns="http://www.w3.org/2000/svg"><g clip-path="url(#clip0_45_863)"><path fill-rule="evenodd" clip-rule="evenodd" d="M68.842 33.916c-1.572-1.378-3.833-1.347-5.13-.946.85-1.044 2.829-1.9 3.412-2.003.444.167 1.718 1.475 1.718 2.949zm5.018-5.706c-1.034-5.53-13.884-1.866-20.355-4.215-.124 1.612 1.992 4.195 4.016 5.15-3.46 3.004-6.566 9.054-7.193 16.446-.625-7.392-3.732-13.442-7.192-16.445 2.024-.956 4.142-3.539 4.017-5.15-6.472 2.348-19.322-1.316-20.357 4.214-.218 1.17.345 2.953.953 3.466.109-.371.677-1.584 2.468-1.856 9.054-1.368 16.612 12.585 9.79 18.227-.105.086-.046.244.095.244h20.455c.14 0 .198-.158.096-.244-6.825-5.642.734-19.595 9.787-18.227 1.793.272 2.36 1.485 2.468 1.856.608-.513 1.171-2.296.952-3.466zm2.202-12.69c-.163-.523 5.146-.536 5.146 2.786 0 2.227-3.175 3.281-3.175 5.592 0 1.076 1.157 1.866 1.513 1.866-.818-3.71 2.563-1.769 3.476-1.075-1.814-4.989 2.271-4.957 1.869-7.245-.28-1.599-3.83-1.116-5.116-1.925-2.28-1.435-4.978-7.021-6.756-1.435 3.314 3.077 1.386 7.606-2.822 7.606 0 0-.023.664.016.717 5.018-.246 6.767-3.934 5.849-6.888zm-58.55 9.17c.914-.695 4.295-2.636 3.48 1.074.353 0 1.51-.79 1.51-1.866 0-2.31-3.175-3.365-3.175-5.592 0-3.323 5.309-3.31 5.146-2.787-.916 2.954.833 6.642 5.851 6.888.037-.053.014-.717.014-.717-4.206 0-6.135-4.53-2.822-7.606-1.778-5.586-4.475 0-6.756 1.435-1.285.81-4.836.326-5.116 1.925-.4 2.288 3.683 2.256 1.869 7.245zm14.25 9.226c1.573-1.378 3.834-1.347 5.13-.947-.847-1.043-2.83-1.898-3.41-2.002-.445.166-1.72 1.475-1.72 2.949zM52.716 2.985L50.267 0 47.82 2.985l2.448 3.141 2.448-3.141zM66.69 12.01l-1.74-2.12-1.74 2.121 1.74 2.073 1.74-2.073zm14.12 61.314l-2.206-2.335-2.207 2.335 2.207 2.049 2.207-2.049zM37.328 12.01l-1.741-2.121-1.74 2.12 1.74 2.074 1.74-2.073zM32.34 22.406h6.493c5.46 0 7.916-3.35 8.658-6.256h5.555c.742 2.906 3.197 6.256 8.658 6.256h6.493s1.135-1.54 1.42-2.303c1.026-2.746-.285-4.027-2.196-4.027l-2.472 2.24-2.471-2.24c-1.912 0-3.223 1.28-2.197 4.026.13.352.444.867.74 1.32-2.304-.316-5.244-1.893-5.89-5.272 0 0 1.703-2.704 2.13-3.799 1.535-3.935-.425-5.544-3.292-5.544l-3.702 4.351-3.7-4.351c-2.868 0-4.828 1.608-3.292 5.544.426 1.095 2.13 3.8 2.13 3.8-.647 3.378-3.587 4.955-5.891 5.272.298-.454.61-.97.74-1.32 1.024-2.746-.283-4.027-2.197-4.027l-2.471 2.24-2.471-2.24c-1.914 0-3.221 1.28-2.197 4.027.285.763 1.422 2.303 1.422 2.303zm67.13 20.127c-1.254.635-8.606 4.08-18.025 2.806a21 21 0 00.249-1.357c6.268-.75 11.364-1.813 14.61-3.62 3.702-2.06 5.321-6.977 3.453-10.636-.049-.092-.183-.109-.25-.032-1.024 1.179-7.462 8.182-17.604 10.359a18.728 18.728 0 00-.144-1.57c4.926-2.794 9.735-6.013 12.026-8.957 3.462-4.45 3.143-10.126-.15-13.02a.156.156 0 00-.234.033c-1.042 1.719-10.797 17.487-21.508 24.293-.13.084-.262.166-.395.246a.506.506 0 00-.079.822c1.235 1.12 2.002 2.677 2.002 4.406 0 3.006-2.317 5.506-5.38 6.048-1.557.302-3.804.215-5.962-.499-.097-.031-.198.033-.198.13v9.522c0 .153.233.19.288.044 1.312-3.476 5.24-4.214 6.958-4.214.618 3.715 1.722 6.792 3.156 8.448 2.336 2.692 6.15 2.654 7.804.793a.135.135 0 00-.037-.208c-.972-.558-6.532-3.972-7.645-9.566.44-.151.868-.323 1.28-.526 1.794 2.97 4.406 5.616 6.509 6.626 3.532 1.695 6.766.87 8.2-1.61.052-.087-.011-.196-.117-.206-2.185-.175-8.89-2.097-11.746-6.779.327-.3.647-.613.945-.946 2.987 2.274 7.212 4.285 10.237 4.696 3.538.48 7.548-.648 7.645-4.764.002-.082-.072-.15-.159-.145-1.258.076-9.588.439-15.523-2.968.206-.392.398-.791.576-1.197 0 0 8.969 2.12 13.218 1.418 4.222-.697 6.696-3.845 6.218-7.761-.013-.098-.127-.155-.218-.109zm-79.188 6.453c.179.405.372.805.578 1.196-5.933 3.405-14.259 3.046-15.522 2.969-.09-.005-.163.066-.161.146.099 4.114 4.107 5.243 7.646 4.762 3.022-.41 7.248-2.421 10.236-4.696.3.333.618.646.945.946-2.857 4.682-9.561 6.604-11.746 6.78-.106.009-.168.118-.117.205 1.434 2.48 4.668 3.305 8.202 1.61 2.101-1.01 4.713-3.655 6.508-6.625.412.202.841.374 1.278.526-1.112 5.593-6.672 9.007-7.644 9.565a.136.136 0 00-.037.208c1.654 1.86 5.47 1.899 7.805-.793 1.435-1.656 2.537-4.733 3.155-8.448 1.72 0 5.645.738 6.957 4.214.057.147.29.109.29-.044v-9.522c0-.097-.102-.161-.199-.13-2.158.714-4.405.801-5.96.5-3.065-.543-5.382-3.043-5.382-6.049 0-1.73.769-3.288 2.002-4.407a.504.504 0 00-.077-.821c-.134-.08-.267-.162-.399-.246-10.704-6.803-20.454-22.56-21.505-24.29a.16.16 0 00-.238-.035c-3.289 2.896-3.609 8.57-.147 13.019 2.29 2.943 7.1 6.162 12.024 8.956-.07.521-.117 1.045-.142 1.57C8.498 37.878 2.065 30.886 1.032 29.7c-.07-.08-.207-.064-.254.028-1.865 3.66-.246 8.575 3.452 10.635 3.247 1.807 8.343 2.87 14.611 3.62.068.454.15.907.248 1.356-9.408 1.273-16.758-2.164-18.02-2.803-.095-.048-.209.011-.22.11-.476 3.916 1.995 7.06 6.218 7.758 4.247.702 13.215-1.417 13.215-1.417zM78.604 78.38l-3.268-2.572c-1.303.777-2.262 2.01-2.634 3.455-1.965.275-7.324-.914-6.803-1.704 5.873-8.26 1.38-13.178-4.018-12.905v5.548c0 1.781-1.555 3.225-3.47 3.225h-3.728c-2.675 0-4.416 2.688-4.416 2.688s-1.74-2.688-4.415-2.688h-3.728c-1.916 0-3.468-1.444-3.468-3.225v-5.548c-5.4-.273-9.895 4.645-4.02 12.905.516.781-4.992 2.032-7.575 1.716a3.822 3.822 0 00-2.762-1.15c-.467 0-.93.083-1.37.245 0 0-10.151-9.612-10.337-9.706l.083-.194c.578-1.082-.306-2.26-.866-2.177.65-.78.68-4.193-2.925-4.983.105.686.159 2.085.159 2.085s-2.783-1.505-4.181-.206c-1.228 1.454.476 4.09.476 4.09s-1.424.035-2.126-.024c1.032 3.49 4.494 3.243 5.243 2.555-.049.555 1.203 1.346 2.264.711l.465-.225c.083.11 9.97 9.452 9.97 9.452a3.249 3.249 0 00-.521 2.383c.235 1.378 1.383 2.52 2.849 2.817a3.947 3.947 0 002.79-.45l2.617 2.43c.233.21.548.342.9.317.64-.042 1.12-.562 1.07-1.156-.02-.27-.157-.5-.346-.675a829.139 829.139 0 00-2.666-2.482c2.164-1.518 6.198-2.587 9.545-2.587.589 0 .865-.498.662-.986-1.516-3.647 1.745-6.29 5.118-4.138 1.471.937 2.966 2.785 4.092 5.867-5.535 1.34-12.484 5.032-13.89 9.061-.54 1.556 1.247 3.677 3.419 4.104a.147.147 0 00.176-.113c1.134-6.016 7.604-10.5 10.97-11.26l.283.757c-3.666 1.734-7.222 5.391-8.237 9.74-.466 1.99 1.754 3.785 3.587 4.276.092.025.183-.04.188-.128.349-5.498 2.776-10.168 4.951-12.292.06.415.105.832.134 1.25 0 0-2.226 6.206-2.226 10.734 0 2.106 3.13 3.576 3.592 3.782.578-.206 3.706-1.676 3.706-3.782 0-4.528-2.226-10.733-2.226-10.733.03-.419.075-.836.135-1.251 2.174 2.124 4.603 6.792 4.95 12.29a.149.149 0 00.188.13c1.834-.49 4.053-2.286 3.589-4.276-1.017-4.348-4.571-8.005-8.238-9.74l.282-.758c3.368.762 9.836 5.245 10.97 11.26a.148.148 0 00.176.114c2.17-.426 3.961-2.548 3.417-4.103-1.403-4.03-8.353-7.722-13.888-9.062 1.128-3.082 2.623-4.93 4.094-5.867 3.371-2.151 6.632.491 5.115 4.138-.202.488.072.986.662.986 3.787 0 8.452 1.368 10.298 3.202 1.18 1.77 3.36 2.903 5.82 2.66 2.795-.273 5.074-2.373 5.389-4.969.274-2.274-.902-4.317-2.777-5.429l-3.27 2.57zM54.52 61.81c1.165-.43 2.99-.082 2.927 1.6-.015.38.52.38.558-.009.349-2.517-1.352-3.242-3.131-2.947-.221-.865-.402-1.621-.608-2.371-.165-.607-.225-1.746.477-1.746.379 0 .226 1.06.191 1.516-.032.4.113.643.438.655.203.008.456-.25.606-.422 1.02-1.152 1.255-2.936.062-3.796-.998-.722-3.498-.184-4.185.844-.104-.387-.6-1.027-.838-1.306-.231-.271-.292-.458.028-.696.151-.116.607-.569.607-1.037 0-.277-.215-.788-.897-.788-.537 0-1.136.373-1.136 1.203 0 .185.046.383.165.595-.34-.056-1.264-.033-1.738.084l6.557 17.993c1.876-.926 3.252-2.393 3.252-3.967 0-1.342-1.976-.896-2.936.15-.308-1.7-.583-3.272-.883-4.837-.082-.432.137-.587.484-.717zm-9.271-12.22l1.377 3.827c-1.18.28-3.076 1.14-3.076 2.28 0 1.516 2.683 2.503 4.234 2.384-.077.346.012.655.253.937-.563 0-1.625.261-1.974.637-.822-.766-2.11-1.045-2.72-.578-.616.47-.634 1.266.008 2.166.447.623.615 1.237.112 1.96 1.87 0 1.181-2.432 1.913-2.432-.095.472-.036 1.017.176 1.622.141.402.141.687-.1 1.075-.603.964-1.541 3.179-1.414 5.181-.613-.003-.925-.153-.709-.99.08-.312-.112-.534-.367-.15-.281.423-.417 1.147-.417 1.456 0 1.784 2.124 2.143 2.935 1.766 2.346 2.27 6.954 1.664 8.498.903L45.864 49.37c-.166-.42-.76-.218-.615.218zm-.282 18.337c-.167-.916 1.108-2.554 2.73-4.135-.345 1.03-.13 2.805.546 3.417-1.176 0-2.574.22-3.276.718z" fill="#67DAFF"/></g><defs><clipPath id="clip0_45_863"><path fill="#fff" d="M0 0h101v101H0z"/></clipPath></defs></svg>