<svg width="256" height="256" fill="none" xmlns="http://www.w3.org/2000/svg"><path d="M153.9 162.8l7.6-7.7c0-.4 6-.9 6-1.3-.1-12.1.1-23.9.1-23.9v-4.1c0-2.3-2.9-5.3-4-6.4-.9-.9-1.9-1.6-3-2.2-.2-.1-.3-.2-.5-.3-2.7-1.5-5.8-2.3-9.1-2.3h-26c-5.9 0-11.1 2.7-14.5 6.8-2.7 3.3-4.3 7.4-4.3 11.9v11.4l18.8 10.64 6.1-3.34 5.1 4.5 4.3 7.4s5 7.9-2.7 14.1c-7.086 5.705-11.8 2-11.8 2l-9.9-14-10 9.8v19.6c0 1.8.3 3.6.7 5.2.6 2.1 1.6 4 2.8 5.7 9 2.2 18.5 3.3 28.2 3.3h2.7v-24.5h17v-13.3h4.4c-.2-2.3-.3-5-.4-7.9-2.1 1.9-5.5 1-7.6-1.1zm-14-19.6l-9.9 9.9c-3 3-7.8 3-10.8 0l-6.7-6.8c-3-3-3-7.8 0-10.8l3.6-3.6c.8-.8 1.8-1.1 2.8-1.1.9 0 1.9.4 2.6 1.1l1.9 1.9.7-.7 6.1-6.1c.9-.9 2.5-.9 3.4 0l2.6 2.6 2.6 2.7c.9.9.9 2.5 0 3.4l-1.5 1.5 2.6 2.6c1 1 1 2.5 0 3.4z" fill="#03A9F4"/><path d="M186.4 161.1v-30.9c0-3.3-1.5-6.3-3.8-8.4-.8-.7-1.8-1.3-2.8-1.7-1.2-.5-2.5-.8-3.8-.9h-.5c-2.8 0-5.4 1.1-7.3 2.8-2.3 2-3.7 4.9-3.7 8.2v23.6h12.4c.05 0 .075.025.1.05.025.025.05.05.1.05 2.3.8 4 2.9 4 5.5v1.7h5.3zm-79.3 22.4l17.6-17.7-15.4-15.5L86 173.6l10.1 10.1c1.2 1.3 2.8 2 4.4 2.2 2.3.3 4.6-.4 6.4-2.2l.2-.2z" fill="#67DAFF"/><path d="M100.7 69.5c0-16.883 13.693-30.5 30.7-30.5 17.003 0 30.7 13.713 30.7 30.5S148.403 100 131.4 100a30.755 30.755 0 01-21.036-8.263l-2.728 2.926A34.753 34.753 0 00131.4 104c19.197 0 34.7-15.487 34.7-34.5 0-19.013-15.503-34.5-34.7-34.5-19.192 0-34.7 15.383-34.7 34.5 0 2.663.32 5.202.842 7.708l3.916-.816c-.478-2.294-.758-4.555-.758-6.892z" fill="#02557A"/><path fill-rule="evenodd" clip-rule="evenodd" d="M118.3 110c-2.478 0-4.849.529-6.98 1.487l-1.64-3.648A21.006 21.006 0 01118.3 106h26c6.435 0 12.175 2.996 16.021 7.501l.013.015c.081-.075.164-.148.248-.221 2.243-2 5.305-3.295 8.618-3.295h.5l.08.002c2.985.119 5.696 1.309 7.796 3.058 2.034 1.677 3.451 3.939 4.154 6.514l.005.021.007.025.003.015.007.031c.236 1.061.348 2.208.348 3.334v30.8c0 .435-.139.837-.374 1.165a7.814 7.814 0 011.374 4.435v15.2c0 .646-.105 1.267-.3 1.846v6.654h15a2 2 0 012 2v41a2 2 0 01-2 2h-57.2a2 2 0 01-2-2v-41a2 2 0 012-2h15v-11.2a2 2 0 012-2h3.5v-3.307c-1.116.406-2.304.487-3.435.324-1.945-.28-3.821-1.282-5.21-2.735l-1.352-1.413 6.972-6.973a2 2 0 01-1.875-1.996V123c0-2.277.583-4.406 1.622-6.237-.165-.21-.348-.43-.55-.673-3.154-3.689-7.811-6.09-12.972-6.09h-26zm45 45.8h.1l.047.094a1.667 1.667 0 01-.147.006v-.1zm.515 0h.032l-.003.001a.51.51 0 01-.054.021l.025-.022zm.032 0h12.627l.044.013c1.456.444 2.582 1.866 2.582 3.587v15.2c0 .995-.805 1.8-1.8 1.8h-.2v-11.3h-4v11.3h-2v-11.3h-4v11.3h-1.6a.392.392 0 01-.273-.127.392.392 0 01-.127-.273v-14.3h-3.928l-.586.586c-.571.571-1.373.813-2.351.672a4.653 4.653 0 01-1.277-.388l6.355-6.354a9.188 9.188 0 01.186-.154l.021-.017c.06-.048.148-.118.245-.201l.079-.043.003-.001zm-2.747 18.1h-1.5v9.2h19.2v-2.896a5.793 5.793 0 01-1.5.196h-11.8c-2.405 0-4.4-1.995-4.4-4.4v-2.1zm-1.5 16.2v-3h19.2v3h-19.2zm23.2 0v-3h13v10h-53.2v-10h13v3h-4.5v4h36.2v-4h-4.5zm-40.2 11h53.2v23h-53.2v-23zm35.5-78.1v16.7h-2.5v.1h2.5v12h-17.9V123c0-1.888.573-3.585 1.534-4.947.022-.03.042-.061.062-.093a7.062 7.062 0 011.406-1.641l.032-.029A9.025 9.025 0 01169.2 114h.457c1.999.089 3.873.895 5.363 2.136l.009.008c1.351 1.113 2.328 2.633 2.829 4.436.158.729.242 1.564.242 2.42zm-1.183 32.8h-.015.015z" fill="#02557A"/><path fill-rule="evenodd" clip-rule="evenodd" d="M101.5 180.218v8.482c0 3.419 1.008 6.573 2.777 9.121l1.185.283.005.001c.617.149 1.226.295 1.857.44 3.259.66 6.569 1.198 9.915 1.6a2 2 0 11-.478 3.972 129.632 129.632 0 01-10.258-1.657l-.053-.011c-.658-.152-1.29-.304-1.913-.453l-.004-.001c-.626-.15-1.242-.298-1.883-.446a2.003 2.003 0 01-1.137-.732c-2.577-3.361-4.013-7.592-4.013-12.117v-8.9a8.949 8.949 0 01-3.84-2.412l-10.074-10.074a1.998 1.998 0 010-2.828l23.3-23.3a2.002 2.002 0 011.27-.581 9.67 9.67 0 012.83-6.519l3.6-3.6a1.227 1.227 0 01.078-.074l.019-.017c1.095-.958 2.586-1.625 4.217-1.494 1.406.028 2.868.639 3.914 1.685l.476.475 5.285-5.365.011-.01c1.681-1.681 4.547-1.681 6.228 0l5.3 5.3c1.681 1.681 1.681 4.547 0 6.228l-.086.086 1.186 1.186c1.681 1.681 1.681 4.547 0 6.228l-9.9 9.9a9.608 9.608 0 01-5.744 2.776 2 2 0 01-.452 2.12l-17.604 17.704-.2.2c-1.665 1.665-3.697 2.588-5.814 2.804zm-1.209-3.955a1.988 1.988 0 00-1.085-.141c-1-.223-1.929-.712-2.636-1.478a1.69 1.69 0 00-.056-.058L87.83 165.9l20.467-20.467L120.88 158.1l-16.198 16.29-.196.196c-1.208 1.207-2.678 1.738-4.195 1.677zm35.495-40.377l-.013.012-6.887 6.888 2.828 2.828 5.486-5.485 1.186 1.185c.028.029.089.122.089.286 0 .164-.061.257-.089.286l-9.9 9.9a5.606 5.606 0 01-7.967.005l-6.694-6.795-.011-.01c-2.219-2.219-2.219-5.853 0-8.072l3.547-3.546c.468-.393.92-.51 1.24-.478.066.007.133.01.199.01.364 0 .857.185 1.186.514l.454.455-3.666 3.729 2.852 2.804 4.711-4.792c.14-.085.271-.187.388-.306l6.691-6.792c.031-.029.124-.087.284-.087.164 0 .257.061.286.089l1.243 1.244-8.65 8.735 2.842 2.814 8.637-8.721 1.228 1.228c.028.029.089.122.089.286 0 .164-.061.257-.089.286l-1.5 1.5z" fill="#02557A"/><path d="M53.788 124.7a6.424 6.424 0 00-.798 3.973c.215 1.586.562 2.717 1.09 3.612.513.874 1.272 1.65 2.512 2.406.038.023.076.048.113.074l.011.008.07.05c2.464 1.711 5.677 1.029 8.004-1.587 2.288-2.573 3.36-6.767 1.05-11.166a2 2 0 012.943-2.55l8.952 6.483a2 2 0 11-2.346 3.239l-4.29-3.106a13.357 13.357 0 01-3.32 9.758c-1.311 1.473-2.98 2.641-4.81 3.298l22.185 15.675a2 2 0 11-2.308 3.266l-28.348-20.029-.051-.036c-1.663-1.025-2.92-2.232-3.816-3.754-.893-1.519-1.35-3.222-1.605-5.104a10.422 10.422 0 011.31-6.53c1.167-1.997 3.13-3.659 5.837-4.026 3.004-.407 5.352 1.384 6.593 3.395 1.2 1.945 1.773 4.764.43 7.005a2 2 0 11-3.432-2.056c.302-.504.338-1.649-.402-2.848-.698-1.131-1.692-1.662-2.652-1.532-1.257.17-2.247.927-2.922 2.082zm14.305-29.136c.326-1.693 1.322-3.43 2.738-4.62 1.388-1.166 3.089-1.746 4.936-1.39 1.563.301 2.682 1.582 3.105 3.303.444 1.808-.05 3.338-.811 3.964a2 2 0 002.54 3.089c2.368-1.947 2.817-5.315 2.155-8.008-.683-2.779-2.72-5.599-6.232-6.276-3.228-.622-6.121.452-8.267 2.256-2.117 1.78-3.592 4.33-4.092 6.924-.443 2.296-.563 4.43-.1 6.508.464 2.079 1.476 3.946 3.055 5.778l28.189 37.775a2 2 0 003.206-2.392l-23.021-30.85c2.743.201 5.58-.482 8.041-1.83 3.894-2.134 7.09-6.009 8.048-11.055l19.916 26.949a2 2 0 003.217-2.378l-23.48-31.77a2 2 0 00-3.58 1.526c1.083 6.313-2.01 11.01-6.043 13.22-4.123 2.258-8.778 1.775-11.33-1.645-.03-.04-.06-.078-.093-.115-1.264-1.455-1.924-2.755-2.22-4.083-.301-1.351-.261-2.89.123-4.88zm69.32 60.815a2 2 0 10-3.312 2.242l6.072 8.975c-.136 3.532-1.484 6.607-3.669 8.622-2.135 1.97-5.229 3.077-9.23 2.456l-6.246-8.37a2 2 0 10-3.206 2.392l6.718 9.003c.295.395.724.667 1.206.764 5.499 1.114 10.178-.268 13.471-3.305 3.25-2.998 4.968-7.439 4.968-12.158a2 2 0 00-.344-1.121l-6.428-9.5z" fill="#02557A"/></svg>