<svg xmlns="http://www.w3.org/2000/svg" viewBox="0 0 214.68 271.07"><defs id="defs4"><style id="style2">.cls-1{fill:#03a9f4}.cls-2{fill:#67daff}.cls-3{fill:#02557a}</style></defs><g id="Ebene_2_Kopie" data-name="Ebene 2 Kopie"><path id="path10" transform="translate(22.29 49.37)" d="M-22.17-49.34h-.12" class="cls-2"/></g><g transform="translate(-45.89 -43.64)" id="g106"><path class="cls-1" d="M177.34 162.34v40.76a23.82 23.82 0 01-4.42 13.9l-.19.27a152.85 152.85 0 01-36.64 4.43 157.83 157.83 0 01-36.3-4.26c-.11-.14-.21-.29-.31-.44-.24-.34-.47-.68-.69-1a23.17 23.17 0 01-2.67-6 24.19 24.19 0 01-.94-6.69v-5.14a6.57 6.57 0 002.62-.79c.14-.07.27-.15.4-.23l.11-.08a2.35 2.35 0 00.32-.23l.1-.07h.06l.24-.21a4.16 4.16 0 00.51-.52l.2-.24a3.6 3.6 0 00.39-.57 3 3 0 00.2-.34c.07-.14.14-.28.2-.42a3.62 3.62 0 00.13-.35 5.81 5.81 0 00.28-1.25 4.08 4.08 0 000-.61v-13.21a5 5 0 00-.07-.54c0-.15-.06-.29-.1-.43a3.06 3.06 0 00-.13-.43 2 2 0 00-.09-.26c-.06-.15-.13-.3-.2-.44a4.15 4.15 0 00-.23-.42 8.43 8.43 0 00-.48-.67 2.43 2.43 0 00-.26-.3l-.11-.12-.27-.26-.14-.11-.07-.06-.2-.16-.27-.2-.09-.06-.35-.21a.09.09 0 00-.06 0l-.38-.2-.24-.18-.37-.14a4.64 4.64 0 00-.53-.16 6.48 6.48 0 00-1.1-.2v-11a24.12 24.12 0 013.61-12.73 23.13 23.13 0 012-2.8 24.08 24.08 0 0117.61-8.85H153a24 24 0 018.58 1.58 23.12 23.12 0 014 2 25.17 25.17 0 016 5.16l.15.17a23 23 0 015.61 15.31z" id="path12" transform="translate(22.29 49.37)" fill="#03a9f4"/><path class="cls-3" d="M101 183.78a2 2 0 01-2-2v-6.62a2 2 0 012-2h3a2 2 0 011.85 2.77l-2.18 5.07a10.14 10.14 0 01-1 1.9 2 2 0 01-1.67.88z" id="path14" transform="translate(22.29 49.37)" fill="#02557a"/><path class="cls-2" d="M125 140.86l-1.1 2.65-1.41 3.42-4.76 11.48-2.86 6.91-1.26 3-2.81 6.8-4 9.53-1 2.3-.11.26a7.9 7.9 0 01-3.48 3.91 7.39 7.39 0 01-1 .47l-.3.11v-12.65a5 5 0 00-.07-.54c0-.15-.06-.29-.1-.43a3.06 3.06 0 00-.13-.43.5.5 0 000-.13 1.11 1.11 0 000-.13c-.06-.15-.13-.3-.2-.44a4.15 4.15 0 00-.23-.42 8.43 8.43 0 00-.48-.67l-.26-.3-.11-.12-.27-.26-.14-.11a2.61 2.61 0 00-.27-.22 1.89 1.89 0 00-.27-.2l-.09-.06-.35-.21a.09.09 0 00-.06 0l-.38-.2-.3-.18-.37-.14a4.64 4.64 0 00-.53-.16 6.48 6.48 0 00-1.1-.2h-.61l-6.54-3 1.42-3.5 8.86-21.4 5.15-12.46.44-1 13.74 5.7.75.32.73.3z" id="path16" transform="translate(22.29 49.37)" fill="#67daff"/><path class="cls-2" d="M84.52 169.16a3.66 3.66 0 011.68.46l-2.14 5.17c-.35-.58-.84-1.43-1.07-1.81-.62-1-1-2.34 0-3.23a2.18 2.18 0 011.53-.59z" id="path18" transform="translate(22.29 49.37)" fill="#67daff"/><path class="cls-2" d="M82.69 178.09l-.42 1-1 2.3-.11.26a7.59 7.59 0 01-1.05 1.82v-2.23a3 3 0 01.26-1.24 3.38 3.38 0 012.32-1.91z" id="path20" transform="translate(22.29 49.37)" fill="#67daff"/><path class="cls-2" d="M100.91 139.85L97 149.26l-5.36 12.93-8.85 21.41-.11.27-.33.35-1-4.92v-.84a5.75 5.75 0 00-.53-2l-4-20.26a15.42 15.42 0 01.22-7l1.57-3.8A15.52 15.52 0 0189 138a16 16 0 019.22.95z" id="path22" transform="translate(22.29 49.37)" fill="#67daff"/><path class="cls-3" d="M101 183.78a2 2 0 01-2-2v-6.62a2 2 0 012-2h3a2 2 0 011.85 2.77l-2.18 5.07a10.14 10.14 0 01-1 1.9 2 2 0 01-1.67.88z" id="path24" transform="translate(22.29 49.37)" fill="#02557a"/><path class="cls-2" d="M191.25 150.22a14.44 14.44 0 00-3.46-5.07 14.92 14.92 0 00-10.91-4.61 15.49 15.49 0 00-8.69 2.73l-.09.07.09.1a22.34 22.34 0 012.34 3.21 23.39 23.39 0 013.28 12.15v21.36h-67.63v22.5h80.65a8 8 0 005.57-6.24v-40.35a15.4 15.4 0 00-1.15-5.85z" id="path26" transform="translate(22.29 49.37)" fill="#67daff"/><path class="cls-1" d="M112.17 92.66a2.59 2.59 0 01-1.81-.73l-3.6-3.56a2.54 2.54 0 01-.33-3.2l2.39-3.45c-.22-.47-.43-1-.62-1.49l-4.2-.78a2.56 2.56 0 01-2-2.45v-5a2.58 2.58 0 012.1-2.5l4.18-.77q.27-.75.59-1.44l-2.41-3.46a2.57 2.57 0 01.3-3.23l3.57-3.6a2.62 2.62 0 013.26-.27l3.46 2.27c.47-.22 1-.42 1.46-.6l.79-4.15a2.58 2.58 0 012.5-2.07h5.1a2.54 2.54 0 012.5 2.15l.77 4c.55.19 1.08.4 1.58.64l3.64-2.46a2.64 2.64 0 013.13.37l3.61 3.56a2.57 2.57 0 01.3 3.24l-2.91 4.22-2.52-1.65 2.69-3.9-3.07-3L132 62.5l-.8-.42a14.75 14.75 0 00-2.73-1.1l-.88-.26-1-5.5h-4.33l-1 5.53-.86.27a15.6 15.6 0 00-2.63 1.08l-.79.42-4.67-3.15-3.06 3 3.09 4.63-.46.82a12.8 12.8 0 00-1.06 2.56l-.26.88-5.6 1v4.25l5.56 1 .27.87a13.74 13.74 0 001.1 2.64l.45.82-3.19 4.58 3.05 3 3.91-2.63 1.68 2.49-4.21 2.84a2.48 2.48 0 01-1.41.54zm-.27-2.92zm-3-3.53zm-4.3-9.71zm4.28-14.5zM140 62zm-28.08-2.85zm24.53-.1zm-10-4.22z" id="path28" transform="translate(22.29 49.37)" fill="#03a9f4"/><path class="cls-1" d="M124.41 83.75a9.3 9.3 0 119.41-9.29h-3a6.41 6.41 0 10-6.41 6.29z" id="path30" transform="translate(22.29 49.37)" fill="#03a9f4"/><path class="cls-1" d="M140.61 97.35a6.86 6.86 0 11-.06-13.72h.06a6.86 6.86 0 110 13.72zm0-10.72a3.86 3.86 0 104 3.85 3.9 3.9 0 00-4-3.85z" id="path32" transform="translate(22.29 49.37)" fill="#03a9f4"/><path class="cls-1" d="M142.3 106.22h-3.49a2.23 2.23 0 01-2.17-1.81l-.49-2.57-.54-.22-2.17 1.46a2.14 2.14 0 01-1.24.38 2.22 2.22 0 01-1.56-.64l-2.47-2.44a2.27 2.27 0 01-.26-2.83l1.47-2.12q-.12-.28-.23-.56l-2.61-.49a2.23 2.23 0 01-1.81-2.17v-3.45a2.24 2.24 0 011.84-2.18l2.6-.48q.1-.26.21-.52l-1.5-2.16a2.22 2.22 0 01.26-2.83l2.48-2.45a2.27 2.27 0 012.69-.33l.52.35 1.79 1.21.53-.22.49-2.6a2.23 2.23 0 012.18-1.79h3.49a2.19 2.19 0 012.18 1.88l.51 2.46.64.26 2.22-1.5a2.1 2.1 0 011.24-.37 2.19 2.19 0 011.62.68l2.42 2.39a2.23 2.23 0 01.27 2.83l-1.5 2.18c.08.17.15.35.22.53l2.62.49a2.24 2.24 0 011.81 2.18v3.46a2.23 2.23 0 01-1.82 2.16l-2.6.48c-.08.2-.16.39-.24.58l1.49 2.15a2.22 2.22 0 01-.27 2.82l-2.49 2.44a2.27 2.27 0 01-2.78.27l-2.22-1.5-.62.25-.47 2.54a2.23 2.23 0 01-2.24 1.8zm-.76-2.35zm-2 0zm-.12-.62h2.2l.69-3.7.91-.25a8.89 8.89 0 001.76-.7l.79-.41 3.12 2.1 1.55-1.52-2.12-3.07.43-.8a10.82 10.82 0 00.75-1.79l.27-.86 3.71-.69v-2.15l-3.73-.69-.27-.87a9.34 9.34 0 00-.71-1.71l-.44-.81 2.15-3.11L149 80.7l-3.16 2.14-.8-.43a8.93 8.93 0 00-1.78-.72l-.88-.25-.71-3.69h-2.19l-.7 3.69-.86.27a10.66 10.66 0 00-1.73.71l-.79.41-3.11-2.1-1.55 1.53 2.15 3.1-.45.81a8.1 8.1 0 00-.68 1.65l-.26.89-3.76.7v2.14l3.72.69.27.87a9.54 9.54 0 00.72 1.73l.44.81-2.12 3.06 1.55 1.53 3.1-2.1.8.43a9.06 9.06 0 001.7.7l.87.26zm9-2.51l-.07.06zm-16.72-.13h-.06zm19.09-1.28zm3.29-7.88zm-27.09 0zm0-1.9zm3.14-6.8zm20.74 0zm-.09-1zm-1.34-1.38h-.07zm-1-.05zm-7-3.15zm-1.95 0zm1 20.26a6.86 6.86 0 116.94-6.87 6.92 6.92 0 01-6.82 6.79zm0-10.72a3.86 3.86 0 103.94 3.85 3.91 3.91 0 00-3.82-3.93z" id="path34" transform="translate(22.29 49.37)" fill="#03a9f4"/><path class="cls-1" d="M140.61 97.35a6.86 6.86 0 116.94-6.87 6.92 6.92 0 01-6.94 6.87zm0-10.72a3.86 3.86 0 103.94 3.85 3.91 3.91 0 00-3.94-3.85z" id="path36" transform="translate(22.29 49.37)" fill="#03a9f4"/><g data-name="Ebene 3" id="Ebene_3"><path class="cls-3" d="M102 183.51l-1-1.72h-2v-6.62a2 2 0 012-2h1.61L116.33 140a7.82 7.82 0 01-2.21-.3 6.89 6.89 0 01-.7-.24L102.64 135c-.14-.05-.31-.13-.46-.21h-.09a7.73 7.73 0 01-1.15-.73 21.56 21.56 0 00-2.62 1.57c-.27.18-.51.36-.75.55l-12 29-3.7-1.53 12.22-29.5a2 2 0 01.62-.81c.46-.36.9-.7 1.36-1a25.4 25.4 0 014.48-2.5 2 2 0 012.33.55 3.43 3.43 0 001.07.85l.3.14 10.7 4.45.29.1a3.44 3.44 0 001.27.14l.49-.07.26-.07.25-.08.37-.17a3.85 3.85 0 00.75-.51 2 2 0 013.15 2.28l-16 38.54a2 2 0 01-1.85 1.24h-1v4.62a2 2 0 01-.93 1.66z" transform="translate(22.29 49.37)" id="path39" fill="#02557a"/><path class="cls-3" d="M79.65 181.86l-2.8-1.16a2 2 0 01-1-2.58l2.09-5 3.7 1.53-1.32 3.19.9.37z" transform="translate(22.29 49.37)" id="path41" fill="#02557a"/><path class="cls-3" d="M101 183.78a2 2 0 01-2-2v-6.62a2 2 0 012-2h3a2 2 0 011.85 2.77l-2.12 5.1a10.22 10.22 0 01-1 1.9 2 2 0 01-1.73.85z" transform="translate(22.29 49.37)" id="path43" fill="#02557a"/><path class="cls-3" d="M127.57 215.17a159 159 0 01-31.85-3.25c-1.77-.36-3.38-.71-4.92-1.07a2 2 0 01-1.15-.76 25.65 25.65 0 01-4.72-11.65 2 2 0 012-2.28h8.06a4.61 4.61 0 001.86-.55l.26-.15.11-.07.1-.06.21-.16.11-.1.09-.08a2.28 2.28 0 00.27-.28l.14-.16a2.09 2.09 0 00.23-.33l.14-.22.06-.12.12-.25.07-.19a4 4 0 00.19-.85 2.48 2.48 0 000-.38V181.8a2 2 0 012-2 2 2 0 012 2V196h65.56a2 2 0 012 2.28 25.63 25.63 0 01-4.72 11.63 2 2 0 01-1.13.75 155.21 155.21 0 01-37.09 4.51zm-35.12-8c1.28.29 2.61.58 4.07.88a153.06 153.06 0 0066.5-1 21.54 21.54 0 003.12-7H101a2 2 0 01-1.81-1.15c-.16.1-.32.19-.5.28a8.42 8.42 0 01-3.35 1h-6.01a21.55 21.55 0 003.12 6.94z" transform="translate(22.29 49.37)" id="path45" fill="#02557a"/><path class="cls-3" d="M116.23 140a7.48 7.48 0 01-2.11-.3 6.89 6.89 0 01-.7-.24L102.64 135c-.14-.05-.31-.13-.46-.21h-.09a7.43 7.43 0 01-2.31-1.84 7.57 7.57 0 01-1.37-7.37L98 118.1a4.34 4.34 0 012.15-4.74l.23-.11c1.75-.73 3.66-.08 5.09 1.75.24.32.77 1 1.15 1.46l3.87-9.34a5.08 5.08 0 012.77-2.77 4.93 4.93 0 013.68 0l.14.05a5 5 0 012.68 6.6l-2.47 6 5.39 2.23a5.83 5.83 0 011 .51l.14.09a6.86 6.86 0 012.48 8.29l-2.18 5.28c-.05.13-.11.25-.16.37l-.07.19-.58 1.4a7.69 7.69 0 01-2 2.85 7.94 7.94 0 01-1.57 1.06c-.26.13-.48.23-.72.33a5.65 5.65 0 01-.77.24 4.56 4.56 0 01-.52.12l-.37.06h-.43zm-14.32-22.94a2.94 2.94 0 000 .54v.19l.46 7.92a2 2 0 01-.15.88 3.6 3.6 0 00.56 3.72 3.45 3.45 0 001.08.85l.3.14 10.7 4.45.29.1a3.45 3.45 0 001.27.14l.49-.07.26-.07.25-.08.37-.17a3.85 3.85 0 00.75-.51 3.7 3.7 0 001-1.36l.55-1.34a2.92 2.92 0 01.19-.46l.07-.15 2.18-5.28a2.76 2.76 0 00.21-1.32 2.72 2.72 0 00-1.12-2.05l-.1-.06a2.06 2.06 0 00-.39-.21l-7.27-3a2 2 0 01-1.08-2.61l3.24-7.82a1 1 0 00-.46-1.35h-.08a1 1 0 00-.74 0 1.11 1.11 0 00-.6.61l-4.39 10.61a3.14 3.14 0 01-2.58 2.19c-1.24.11-2.35-.56-3.34-2-.24-.3-1.22-1.53-1.57-2a2.36 2.36 0 00-.34-.43z" transform="translate(22.29 49.37)" id="path47" fill="#02557a"/><path class="cls-3" d="M168.81 177.16h-64.87a2 2 0 01-1.85-2.76l16-38.54a2 2 0 01.53-.74 3.71 3.71 0 001-1.38l.55-1.34a2.92 2.92 0 01.19-.46l.07-.15 1.23-3a2 2 0 011.85-1.24h21A26.52 26.52 0 01164.6 137l.06.06a24.52 24.52 0 012.59 3.54 25.55 25.55 0 013.56 13.17v21.36a2 2 0 01-2 2.03zm-61.88-4h59.88V153.8a21.26 21.26 0 00-3-11.12 20.5 20.5 0 00-2.13-2.92l-.06-.07a22.29 22.29 0 00-17.19-8.12h-19.64l-.72 1.74c-.05.13-.11.25-.16.37l-.07.19-.58 1.4a7.73 7.73 0 01-1.67 2.51z" transform="translate(22.29 49.37)" id="path49" fill="#02557a"/><path class="cls-3" d="M107.58 118.87a42.94 42.94 0 01-10-7.14l2.77-2.89a39 39 0 009.1 6.48z" transform="translate(22.29 49.37)" id="path51" fill="#02557a"/><path class="cls-3" d="M128.13 123.72a41.7 41.7 0 01-5.18-.32l.5-4a37.61 37.61 0 004.68.29 39 39 0 10-38.89-39 41.06 41.06 0 00.94 8.86l-3.91.86a45.12 45.12 0 01-1-9.72 42.89 42.89 0 1142.89 43z" transform="translate(22.29 49.37)" id="path53" fill="#02557a"/><path class="cls-3" d="M73.39 169.55l-3.58-17.95a17.54 17.54 0 01.23-7.79v-.1a18 18 0 011.76-4.27A17.56 17.56 0 0183.57 131a17.94 17.94 0 0110.32 1l2.68.93-1.31 3.78-2.73-.95h-.11a14 14 0 00-8.07-.84 13.55 13.55 0 00-9.06 6.52 14 14 0 00-1.35 3.24v.09a13.5 13.5 0 00-.19 6.07l3.58 17.95z" transform="translate(22.29 49.37)" id="path55" fill="#02557a"/><path class="cls-3" d="M179.53 200H101.3a2 2 0 01-2-2v-16.22a2 2 0 01.36-1.15 6.1 6.1 0 00.63-1.15l2.11-5.09a2 2 0 011.85-1.23h64.57v4h-63.24L104 181a10.14 10.14 0 01-.68 1.34V196h76.23a5.9 5.9 0 004.74-2.35 6 6 0 001.12-2.43v-40.15a13.31 13.31 0 00-1-5.09 12.38 12.38 0 00-3-4.37l-.09-.09a13 13 0 00-9.45-4 13.55 13.55 0 00-7.52 2.36l-.23-.35-2.19-2.83.09-.07.12-.08a17.49 17.49 0 019.8-3.06 17 17 0 0112.32 5.19 16.35 16.35 0 013.9 5.73 17.27 17.27 0 011.29 6.61v40.35a2 2 0 010 .35 10 10 0 01-9.83 8.24z" transform="translate(22.29 49.37)" id="path57" fill="#02557a"/><path class="cls-3" d="M94.57 200.16h-8.92a7.33 7.33 0 01-7.49-7.16v-11.75a5 5 0 01.43-2.06 5.37 5.37 0 013.59-3l.31-.08-.17-.3-.62-1-.43-.72c-1.29-2.19-1.16-4.32.34-5.72a4.71 4.71 0 015.51-.44l.24.13 7.64 3.46h.27a7.61 7.61 0 011.44.26 6.59 6.59 0 01.7.21c.11 0 .29.1.46.18l.14.06h.1c.21.1.39.19.54.28l.1.06.43.26.08.06a3.65 3.65 0 01.41.3l.31.25a2.83 2.83 0 01.33.28l.28.27.21.22.27.32c.1.12.19.24.29.37a5.44 5.44 0 01.36.53 5.9 5.9 0 01.35.64c.06.11.14.28.21.46a2.53 2.53 0 01.12.29c0 .08.05.15.07.22a4.74 4.74 0 01.15.52c0 .17.08.33.12.51a7.32 7.32 0 01.11.82v13.24a6.07 6.07 0 01-.06.9 7.71 7.71 0 01-.37 1.62 5.46 5.46 0 01-.2.51c-.06.15-.15.32-.24.5l-.06.11c-.07.13-.14.26-.23.39a5.62 5.62 0 01-.55.79l-.24.28a5.9 5.9 0 01-.72.73l-.34.29-.08.06-.08.06-.35.25a2 2 0 01-.26.17c-.17.1-.34.2-.52.29a8.42 8.42 0 01-3.35 1c-.08.07-.36.08-.63.08zm-8.47-25.83c1.06 1.54 1.3 2.89.71 4A3.27 3.27 0 0183.6 180a1.39 1.39 0 00-.38 0 1.41 1.41 0 00-1 .77 1.09 1.09 0 00-.1.47V193a3.33 3.33 0 003.49 3.13h9.32a4.61 4.61 0 001.86-.55l.26-.15.11-.07.1-.06.21-.16.11-.1.09-.08a2.28 2.28 0 00.27-.28l.14-.16a2.09 2.09 0 00.23-.33l.14-.22.06-.12.12-.25a1.91 1.91 0 00.07-.19 4 4 0 00.19-.85 2.48 2.48 0 000-.38v-12.99a3.13 3.13 0 000-.35s0-.12-.05-.21 0-.11 0-.17v-.13l-.05-.16c0-.09-.08-.19-.13-.28a2.52 2.52 0 00-.15-.27l-.1-.16-.1-.13-.08-.11-.06-.08-.17-.19-.19-.18-.14-.11-.09-.08-.22-.17-.1-.07-.24-.14-.12-.06-.21-.11-.17-.07-.16-.06-.37-.12h-.12a3.61 3.61 0 00-.67-.12H95a3.9 3.9 0 01-1.24-.2l-8.14-3.76-.21-.12-.12-.06a1.48 1.48 0 00-.87-.21 2.17 2.17 0 00.32.78l.44.75.62 1zm12.72 4.1zm0-.13zm-.09-.27zm0-.12zm-15.5-.72zm14.65-.42l.06.08zm-.2-.17zm-13.82-.6z" transform="translate(22.29 49.37)" id="path59" fill="#02557a"/></g></g></svg>