<svg width="256" height="256" fill="none" xmlns="http://www.w3.org/2000/svg"><path d="M148.667 137.6c0-5.823-19.667-8.1-16.167-13.6 8.5 0 29.167-1.024 35 4 2.388 2.057 4 3.906 4 3.906l11.167 5.694v52.282l-4.5 11.906s-9.555 4.883-17.667 6.212c-8.1 1.328-19.5 2-19.5 2l5.5-12 4.667-11v-26.624l-2.5-2.588V137.6z" fill="#03A9F4"/><path d="M193.277 134.611a14.44 14.44 0 013.46 5.07 15.417 15.417 0 011.15 5.85v40.35a8.006 8.006 0 01-5.57 6.24h-39.65v-22.5h26.63v-21.36a23.388 23.388 0 00-3.28-12.15 22.256 22.256 0 00-2.34-3.21l-.09-.1.09-.07a15.48 15.48 0 018.69-2.73 14.908 14.908 0 0110.91 4.61zm-87.248 20.855a3.883 3.883 0 00-3.688 0l-29.986 15.133h-.001a3.872 3.872 0 00-1.463 1.416s-.493-.534-.92-1L70 171c-1.07-1.13-.61-.62-.029.015L67 172.526c2.355 9.616 8.487 26.053 17 35.371 7.066 7.735 28.569 16.182 31.5 17.103 0 0-.074-.057.925-.478 9.218-3.809 14.575-10.022 19.696-16.625 1.208-1.801 1.614-2.609 2.629-4.624.447-.887 1.011-2.008 1.814-3.55C146.022 189.231 144.5 191 144.5 191l-7.5-1c-.747-.463-1.584-.138-2.468.205-1.131.44-2.339.909-3.532-.205-1.884 0-8.22-1.113-4.5-9l-.5-8.5V167l-19.971-11.534z" fill="#67DAFF"/><path d="M94 75c0-18.28 14.731-33 33-33 18.265 0 33 14.824 33 33 0 18.176-14.735 33-33 33a32.942 32.942 0 01-22.607-8.936l-2.737 2.918A36.946 36.946 0 00127 112c20.481 0 37-16.622 37-37s-16.519-37-37-37c-20.477 0-37 16.51-37 37 0 2.854.34 5.577.898 8.267l3.917-.811C94.3 79.976 94 77.53 94 75z" fill="#02557A"/><path fill-rule="evenodd" clip-rule="evenodd" d="M153.945 162.25h17.622v-19.36a21.263 21.263 0 00-3-11.12 20.597 20.597 0 00-2.13-2.92l-.06-.07a22.294 22.294 0 00-17.19-8.12h-19.64l-.72 1.74c-.03.077-.063.15-.095.222l-.001.001a4.673 4.673 0 00-.064.147l-.031.083-3.515-1.833.066-.14 1.23-3a1.996 1.996 0 011.85-1.24h21a26.513 26.513 0 0118.949 8.18 17.484 17.484 0 018.48-2.24 17.01 17.01 0 0112.32 5.19 16.332 16.332 0 013.9 5.73 17.259 17.259 0 011.29 6.61v40.35a1.86 1.86 0 010 .35 10 10 0 01-9.83 8.24l-.09.04h-9.319a25.63 25.63 0 01-4.421 9.91 1.997 1.997 0 01-1.13.75 155.174 155.174 0 01-25.617 4.082l1.736-4.094a153.042 153.042 0 0022.241-3.598 21.516 21.516 0 003.12-7h-18.107a5.82 5.82 0 01-.198.243l-.015.018-.021.024-.153.175a6.958 6.958 0 01-.772.792l-.097.086-.134.122a4.403 4.403 0 01-.266.222l-.288.219c-.118.089-.24.172-.366.248l-.092.055-.107.068a4.46 4.46 0 01-.148.089l-.357.206-.04.023a10.306 10.306 0 01-4.205 1.253 3.81 3.81 0 01-.302.011h-12.693a8.564 8.564 0 01-8.861-8.05 3.719 3.719 0 01-.007-.236v-16.087a5.493 5.493 0 01.505-2.337l.032-.068a5.935 5.935 0 014.208-3.237 5.879 5.879 0 011.728-.049.487.487 0 00.377-.142c-.037-.193-.184-.647-.688-1.378a3.656 3.656 0 01-.116-.179l-.406-.662-.844-1.359-.05-.084-.56-.953a6.954 6.954 0 01-.958-2.397 3.997 3.997 0 013.644-4.761 6.019 6.019 0 013.366.752l.059.029c.067.033.132.068.196.105l.138.078 10.733 4.953c.094.02.189.03.286.03h.281c.11 0 .221.005.331.014.385.032.767.088 1.144.17.286.028.567.086.841.175l.507.164c.058.019.114.039.171.06l.219.082.024.009.094.038.233.095c.114.047.225.099.333.156l.255.133.131.065c.076.038.152.079.226.122l.329.192c.095.056.188.115.279.178l.137.096c.051.036.102.073.151.112l.302.233c.073.056.143.114.212.175l.032.029.097.076c.097.076.19.156.28.241l.26.246c.08.076.157.155.23.237l.233.26c.077.086.15.175.219.267l.083.11.035.047.078.107.104.136c.079.102.153.209.222.318l.128.206c.118.185.227.375.328.57l.099.169zm1.591 7.84l1.58-3.84h16.451a2.008 2.008 0 001.424-.596 1.994 1.994 0 00.576-1.434v-21.36a25.564 25.564 0 00-3.56-13.17 24.413 24.413 0 00-1.148-1.734 13.547 13.547 0 015.767-1.346 13.002 13.002 0 019.45 4l.09.09a12.369 12.369 0 013 4.37 13.304 13.304 0 011 5.09v40.15a5.982 5.982 0 01-1.12 2.43 5.896 5.896 0 01-4.74 2.35h-29.45v-13.66c.259-.429.487-.877.68-1.34zm-7.114-8.197l.137.096.302.233.123.109.192.151.261.247.233.26.082.109.11.151.137.178.137.219c.076.119.145.243.205.37l.055.091.001.001c.06.097.123.198.123.291l.068.219v.178l-.001.022c-.003.018-.009.034-.014.049-.016.041-.03.081.015.162a.683.683 0 01.069.288c.009.159.009.32 0 .479v17.789c.013.173.013.347 0 .52a5.449 5.449 0 01-.261 1.164 2.396 2.396 0 01-.096.261l-.164.342-.082.164-.192.302c-.091.16-.196.311-.316.452l-.192.219a3.114 3.114 0 01-.37.383l-.123.11-.151.137-.288.219-.137.082-.151.096-.356.205a6.313 6.313 0 01-2.55.753h-12.777a4.56 4.56 0 01-4.784-4.286v-16.105a1.488 1.488 0 01.137-.643 1.934 1.934 0 011.371-1.055c.173-.023.348-.023.521 0a4.485 4.485 0 004.4-2.287c.61-1.146.573-2.479-.105-3.969a9.858 9.858 0 00-.868-1.508l-.411-.671-.85-1.37-.603-1.027a2.969 2.969 0 01-.439-1.068c.418-.029.834.071 1.193.288l.164.082.288.164 11.159 5.149a5.336 5.336 0 001.7.274h.274c.311.026.618.081.919.164h.164l.507.165.22.082.233.096.288.15.164.083.329.191z" fill="#02557A"/><path d="M96.23 118.562l5.055-.812 37.993 20.682.027.014.042.021a6.25 6.25 0 012.425 2.289l.002.003c.583.969.893 2.077.893 3.21v8.043a2 2 0 01-4 0v-8.043a2.222 2.222 0 00-1.138-1.937l-.02-.01a.429.429 0 00-.037-.019l-37.075-19.726c-.019-.009-.038-.02-.056-.03a2.278 2.278 0 00-2.106.022l-.004.003-36.04 19.701-.007.004-.025.014a2.234 2.234 0 00-.85.821A2.2 2.2 0 0061 143.94v27.885c0 .594.01 1.188.03 1.781l38.71-21.791 17.208 9.429a2 2 0 11-1.922 3.507l-15.26-8.361-38.404 21.619a53.1 53.1 0 008.423 23.045 53.573 53.573 0 0023.48 19.658l.003.001 4.934 2.107.003.001a2.273 2.273 0 001.771-.001l.005-.002 5.671-2.381.012-.005a53.446 53.446 0 0023.996-19.589 2 2 0 113.32 2.231 57.44 57.44 0 01-25.786 21.053l-.006.003-5.654 2.374-.002.001a6.276 6.276 0 01-4.888-.001l-.006-.002-4.948-2.113-.007-.003a57.565 57.565 0 01-25.237-21.129A57.064 57.064 0 0157 171.825v-31.069l39.23-22.194z" fill="#02557A"/></svg>