<svg id="Ebene_1" version="1.1" viewBox="0 0 256 256" xml:space="preserve" xmlns="http://www.w3.org/2000/svg"><style>.st0{fill:#03a9f4}.st1{fill:#67daff}.st2,.st3,.st5{fill:none;stroke-width:4;stroke-linejoin:round}.st2{stroke:#02557a;stroke-miterlimit:10}.st3,.st5{stroke-linecap:square}.st3{stroke:#02557a;stroke-miterlimit:10}.st5{stroke:#03a9f4}</style><path class="st0" d="M156.3 191.8l-.3.1-15.1 2.8-6.2 1.2-25.4 4.7c-6.2 1.1-10.5 6.5-10.5 12.6 0 .7.1 1.4.2 2.1v.3c1.3 6.9 7.9 11.5 14.9 10.2l20.7-3.9 35.7-6.6 8.9-1.6c4.1-.8 6.8-4.7 6-8.7l-3.1-17-5.7 1-20.1 2.8z" id="Ebene_5"/><path class="st1" d="M92.6 188l-5.7-1-3.1 17c-.8 4.1 1.9 8 6 8.7l8.9 1.6 35.7 6.6 20.7 3.9c6.9 1.3 13.6-3.3 14.9-10.2v-.3c.1-.7.2-1.4.2-2.1 0-6-4.3-11.4-10.5-12.6l-25.4-4.7-6.2-1.2-15.1-2.8-.3-.1-20.1-2.8z" id="Ebene_4"/><g id="Ebene_2_Kopie"><path class="st1" d="M144.4 183.8c5.1-.2 10.1-.7 15.1-1.6l3.5 3.5c1.4 1.4 3.2 2.1 5 2.2 2 .1 4.1-.6 5.7-2.2l2.8-2.8v-47.3c0-6.3-4.8-11.5-11-12.1-.2 0-.4 0-.6-.1h-.7c-2.6 0-5 .8-7 2.2l-1.4 1.3-.4 1.9-3.8 22.5-1.9 8.6-.1.5-2.1 9.7-3.1 13.7zm-21 0c-5.1-.2-10.1-.7-15.1-1.6l-3.5 3.5c-1.4 1.4-3.2 2.1-5 2.2-2 .1-4.1-.6-5.7-2.2l-2.8-2.8v-47.3c0-6.3 4.8-11.5 11-12.1.2 0 .4 0 .6-.1h.7c2.6 0 5 .8 7 2.2l1.4 1.3.4 1.9 3.8 22.5 1.9 8.6.1.5 2.1 9.7 3.1 13.7z"/><path class="st0" d="M127.6 144.2c-.1.4-.7.8-.9 1.1v.1c.1.4.9.8.9 1.2 0-.4.8-.8.9-1.2-.1-.4-.8-.8-.9-1.2zm31-16.5c-1.6-1.9-3.6-3.4-5.8-4.5-.3-.1-.6-.3-.8-.4-1.8-.7-3.8-1.1-5.9-1.1h-22.5c-5 0-9.5 2.3-12.5 5.9 0 0 0 .1-.1.1-2.3 2.8-3.8 6.5-3.8 10.4v45.3l1.1-1.1c4.9.8 9.9 1.4 15.1 1.6 1.4.1 2.9.1 4.3.1 6.4 0 12.7-.5 18.9-1.5l3.4 3.4c1.4 1.4 3.2 2.1 5 2.2 2 .1 4.1-.6 5.7-2.2l1.7-1.7v-46c0-4-1.4-7.7-3.8-10.5zM139.1 158l-.9.9-.4.4-.4.4-.7.7-.2.2-5 5.3h-.2c-2-.1-3.6-1.7-3.6-3.8 0 2.1-1.7 3.8-3.8 3.8l-5.9-6.2c-1-1-1.7-1.9-1.7-1.9v-11.3c0-1.4.7-2.6 1.8-3.3V136c0-1.2.9-2.2 2-2.4v-.9c0-2 1.5-3.5 3.3-3.8h.4c.4 0 .9.1 1.3.2.5.2 1 .5 1.4.9.6.7 1.1 1.6 1.1 2.6 0-1 .5-1.9 1.1-2.6.3-.3.6-.5 1-.7.5-.3 1.1-.4 1.7-.4.5 0 1 .1 1.4.3 1.4.6 2.4 1.9 2.4 3.5v.9c1.2.2 2 1.2 2 2.4v7.2c1.1.7 1.8 1.9 1.8 3.3v7c0 2.1 0 2.8.1 4.5zm-10.6-12.6c-.1-.4-.8-.8-.9-1.2-.1.4-.7.8-.9 1.1v.1c.1.4.9.8.9 1.2.1-.4.8-.8.9-1.2zm-.9-12.5v-.2 11.5-11.3zm0 14.7v-1 15.5-14.5z"/></g><g id="Ebene_3"><path class="st2" d="M146.6 182.4c-6.1 1-12.4 1.5-18.9 1.5-1.5 0-2.9 0-4.3-.1-5.1-.2-10.1-.7-15.1-1.6"/><path class="st3" d="M127.6 148.5v-.6c0-1.4-1.1-2.5-2.4-2.5-1.3 0-2.4 1.1-2.4 2.5v1.8"/><path class="st2" d="M120.1 133.7c-1.1.2-2 1.2-2 2.4v7.2c-1.1.7-1.8 1.9-1.8 3.3v11.2s.7.8 1.7 1.9l5.9 6.2c2.1 0 3.7-1.7 3.8-3.8v-15.4c0-.4-.8-.8-.9-1.2v-.1c.2-.4.8-.7.9-1.1v-11.5c0-1-.5-1.9-1.1-2.6-.4-.4-.9-.7-1.4-.9-.4-.2-.8-.2-1.3-.2h-.4c-1.8.2-3.3 1.8-3.3 3.8-.1-.1-.1.4-.1.8z"/><path class="st3" d="M127.6 148.5v-.6c0-1.4 1.1-2.5 2.4-2.5 1.3 0 2.4 1.1 2.4 2.5v1.8"/><path class="st2" d="M139.1 158l-.9.9-.4.4-.4.4-.7.7-.2.2-5 5.3h-.2c-2-.1-3.6-1.7-3.6-3.8v-15.5c0-.4.8-.8.9-1.2-.1-.4-.8-.8-.9-1.2v-11.5c0-1 .5-1.9 1.1-2.6.3-.3.6-.5 1-.7.5-.3 1.1-.4 1.7-.4.5 0 1 .1 1.4.3 1.4.6 2.4 1.9 2.4 3.5v.9c1.2.2 2 1.2 2 2.4v7.2c1.1.7 1.8 1.9 1.8 3.3v7c-.1 2-.1 2.7 0 4.4z"/><path class="st2" d="M99.8 188c1.8-.1 3.6-.8 5-2.2l2.4-2.4 1.1-1.1 12.1-12.1 3.7-3.8-5.9-5.9-9.6-9.7-1.4 1.4-7.4 7.4v-27.3c0-3.2.9-6.2 2.6-8.7.1-.1.1-.2.2-.3.3-.5.6-.9 1-1.3 3-3.6 7.5-6 12.6-6h22.5c5 0 9.6 2.3 12.6 5.9.3.3.5.6.7.9.1.2.3.4.4.6 1.7 2.6 2.7 5.6 2.7 8.9v27.3l-8.8-8.8-9.8 9.8-5 5.3h-.2l-.5.5 15.9 16 3.4 3.4c1.4 1.4 3.2 2.1 5 2.2M99.8 89c-.5-2-.7-4.2-.7-6.4 0-15.6 12.7-28.3 28.3-28.3s28.3 12.7 28.3 28.3-12.7 28.3-28.3 28.3c-7.5 0-14.3-2.9-19.4-7.6"/><path class="st2" d="M85.1 174.5v-44.2c0-6.7 5.5-12.2 12.2-12.2 2.6 0 5 .8 7 2.2m46.7 0c2-1.4 4.4-2.1 6.9-2.1 3.4 0 6.4 1.4 8.6 3.6 2.2 2.2 3.6 5.3 3.6 8.6v44.5"/><path d="M87.6 107.5c-3.9-6.8-6.1-14.7-6.1-23.1 0-25.6 20.6-46.3 46.1-46.3s46.1 20.7 46.1 46.3c0 4-.5 7.9-1.5 11.6" fill="none" stroke="#03a9f4" stroke-width="4" stroke-linecap="square" stroke-linejoin="round" stroke-dasharray="21,8,55,13"/><path class="st5" d="M166 33.7c2.8 2.1 5.4 4.5 7.8 7"/><path d="M180.1 48.7C187 58.9 191 71.2 191 84.4c0 6.2-.9 12.1-2.5 17.8" fill="none" stroke="#03a9f4" stroke-width="4" stroke-linecap="square" stroke-linejoin="round" stroke-dasharray="42.7066,26.4005"/><path class="st5" d="M183.5 114.4c-1.6 3.1-3.5 6.1-5.7 8.8"/><path class="st3" d="M170.1 174.8v1.5l-7.7 7.7-1.7 1.7c-1.6 1.6-3.6 2.3-5.7 2.2-1.8-.1-3.6-.8-5-2.2l-3.4-3.4-15.9-16 .5-.5h.2l5-5.3 9.8-9.8 8.8 8.8 7.4 7.4 7.7 7.9zm-85 0v1.5l7.7 7.7 1.7 1.7c1.6 1.6 3.6 2.3 5.7 2.2 1.8-.1 3.6-.8 5-2.2l3.4-3.4 15.9-16-.5-.5h-.2l-5-5.3-9.8-9.8-8.8 8.8-7.4 7.4-7.7 7.9z"/><path class="st2" d="M167.3 184.3l8.6-1.8 3.3 17.8c.8 4.1-1.9 8-6 8.7l-8.9 1.6m-67.4.1v.2c1.1 6.2 7.1 10.3 13.2 9.1l18.5-3.4"/><path class="st5" d="M75 120c-.5-.7-.9-1.4-1.4-2.1"/><path d="M69.8 110.4c-3.5-7.9-5.5-16.8-5.5-26v-2" fill="none" stroke="#03a9f4" stroke-width="4" stroke-linecap="square" stroke-linejoin="round" stroke-dasharray="21.9978,13.5869"/><path d="M64.8 75.6c1.9-13.8 8.2-26.2 17.5-35.7" fill="none" stroke="#03a9f4" stroke-width="4" stroke-linecap="square" stroke-linejoin="round" stroke-dasharray="3.235,8.4109,21.9978,13.5869"/><path class="st5" d="M87.3 35.3c.6-.5 1.3-1.1 2-1.6"/><path class="st2" d="M86.9 183.3l-5.7-1-3.1 17c-.8 4.1 1.9 8 6 8.7l8.9 1.6 35.7 6.6 20.7 3.9c6.9 1.3 13.6-3.3 14.9-10.2v-.3c.1-.7.2-1.4.2-2.1 0-6-4.3-11.4-10.5-12.6l-25.4-4.7-6.2-1.2-15.1-2.8-.3-.1m60.3-1.8l8.6-1.8 3.3 17.8c.8 4.1-1.9 8-6 8.7l-8.9 1.6m-67.4.1v.2c1.1 6.2 7.1 10.3 13.2 9.1l18.5-3.4"/></g></svg>