<svg viewBox="0 0 256 256" xmlns="http://www.w3.org/2000/svg"><style>.st0{fill:#03a9f4}.st1{fill:#67daff}.st2,.st3,.st4{fill:none;stroke:#02557a;stroke-width:4;stroke-miterlimit:10}.st3,.st4{stroke-linejoin:round}.st4{stroke-linecap:square}</style><g id="Ebene_2_Kopie"><path class="st0" d="M207.5 140.8v27.4c-2 1.1-4.1 2.1-6.2 3h-78.1v-24.8c0-5.5 2.4-10.4 6.2-14.2 4.6-4.4 11.1-7.3 18.3-7.3h22.1c7 0 13.2 2.7 17.5 7l1.2-.9c1-.7 2.2-1.2 3.4-1.6.4-.1.7-.2 1.1-.3.4-.1.7-.1 1.1-.2.4 0 .7-.1 1.1-.1h.5c1 0 2 .1 3 .4 2.1.5 3.9 1.6 5.4 3.1l.8.8c.1.1.2.3.3.5.3.5.7.9.9 1.4.5 1 1 2.1 1.2 3.3.2.9.2 1.7.2 2.5z"/><path class="st1" d="M207.5 140.8v30.4h-24v-30.4c0-3.4 1.5-6.7 3.9-8.9.4-.3.8-.7 1.2-.9 1-.7 2.2-1.2 3.4-1.6.4-.1.7-.2 1.1-.3.4-.1.7-.1 1.1-.2h1.6c1 0 2 .1 3 .4 2.1.5 3.9 1.6 5.4 3.1l.8.8c.1.1.2.3.3.5.4.5.7.9.9 1.4.5 1 1 2.1 1.2 3.3.1.8.1 1.6.1 2.4z"/><path class="st0" d="M185.2 84.7c-1.9 1.9-4.5 3-7.1 2.9-5.7-.5-9.9-6.4-9.4-13.5s5.5-12.3 11.2-12c2.4.2 4.7 1.4 6.3 3.4l-1 19.2z"/><path class="st1" d="M176.3 74.5c.4-5.4 4.2-9.5 8.6-9.2 4.4.3 7.6 4.9 7.2 10.3-.4 5.4-4.2 9.5-8.6 9.2-4.4-.3-7.6-4.9-7.2-10.3z"/></g><g id="Ebene_3"><path class="st2" d="M222 224v-60.4H117.9"/><path class="st3" d="M122.3 86.4c-1.7-4.1-2.6-8.6-2.6-13.3 0-19.7 16.2-35.7 36.1-35.7s36.1 16 36.1 35.7-16.2 35.7-36.1 35.7c-9.5 0-18.1-3.6-24.6-9.6m-14.2 42c0-5.9 2.6-11.2 6.8-15.4 5-4.8 12.1-7.9 19.9-7.9h24.1c6.3 0 12.1 2 16.6 5.4"/><path class="st3" d="M176.7 149.7V135c0-3.7 1.6-7.2 4.2-9.6 2.3-1.9 5.3-3.2 8.6-3.2h.5c7.1 0 12.9 5.8 12.9 12.8v28.4c-.1.1-.2.1-.3.2"/><path class="st2" d="M34.3 224v-60.4h67.5v-28.4c0-7.1 5.8-12.8 12.9-12.8h.5c3.3 0 6.4 1.3 8.7 3.3l.1.1"/><path class="st3" d="M182.2 81.7c-1.9 1.9-4.5 3-7.1 2.9-5.7-.5-9.9-6.4-9.4-13.5s5.5-12.3 11.2-12c2.4.2 4.7 1.4 6.3 3.4"/><path class="st4" d="M173.3 71.5c.4-5.4 4.2-9.5 8.6-9.2 4.4.3 7.6 4.9 7.2 10.3s-4.2 9.5-8.6 9.2c-4.4-.3-7.6-4.9-7.2-10.3zm-47.9-18.9c.6-3.5 2.1-6.9 4.2-9.8 5-6.9 13.3-9.8 21.7-8.7 5.5.8 11.2 3.2 16 7.4 5.3 4.5 7.6 11.1 7.9 16.5m-6.7 23.6c-.2 1.1-.6 2.2-1.6 3.4-2.4 2.6-6.8 4.6-11.6 5.6-3.2.6-6.5.8-9.5.3-3.2-.5-5.8-1.6-7.3-3"/><circle cx="138.4" cy="87.8" fill="#02557a" r="4"/><path class="st4" d="M59.4 142.9l4.4-1.5.4-.1.8-.3 4.4-1.5c1.4-.5 2.3-1.7 2.3-3.2V55.1c0-.5-.1-1.1-.4-1.5l5-1.7c2.2-.7 4.4.9 4.4 3.2v81.3c0 1.4-.9 2.7-2.3 3.2l-7.8 2.6-6.5 2.2-.4.1-5.3 1.8c-.4.1-.8.2-1.2.2-1.2 0-2.4-.8-2.9-1.8l2.9-1 2.2-.8"/><path class="st4" d="M57.3 143.6l-2.9 1-5 1.7c-2.2.7-4.4-.9-4.4-3.2V61.8c0-1.4.9-2.7 2.3-3.2l20-6.7c1.6-.6 3.3.2 4.1 1.7.2.5.4 1 .4 1.5v63.4m-7.6 45v-19.1l6.5-2.2v21.3m-13.4 0v-17c.4 0 .8 0 1.2-.2l5.3-1.8v19"/></g></svg>